<?xml version="1.0" encoding="utf-8"?>
<!-- Generator: Adobe Illustrator 16.0.0, SVG Export Plug-In . SVG Version: 6.00 Build 0)  -->
<!DOCTYPE svg PUBLIC "-//W3C//DTD SVG 1.1//EN" "http://www.w3.org/Graphics/SVG/1.1/DTD/svg11.dtd">
<svg version="1.1" id="圖層_2" xmlns="http://www.w3.org/2000/svg" xmlns:xlink="http://www.w3.org/1999/xlink" x="0px" y="0px"
	 width="58.133px" height="48.583px" viewBox="0 0 58.133 48.583" enable-background="new 0 0 58.133 48.583" xml:space="preserve">
<g enable-background="new    ">
	<path d="M14.623,16.801l-2.572-1.893l-0.792,1.076c-0.453,0.617-1.06,0.646-1.819,0.087c-0.298-0.219-0.669-0.504-1.116-0.854
		l0.111-0.763c0.25,0.201,0.566,0.441,0.948,0.722c0.476,0.35,0.768,0.535,0.877,0.554c0.108,0.019,0.202-0.025,0.281-0.133
		l0.858-1.167L4.02,9.001l0.379-0.516l7.381,5.43l0.408-0.554l0.65,0.478l-0.408,0.554l2.572,1.893L14.623,16.801z M19.194,10.251
		l-4.802-3.532l-0.558,0.758l3.854,2.835l-2.204,2.996l-0.638-0.469c0.245,0.882,0.379,1.74,0.403,2.575l-0.748-0.06
		c-0.005-0.458-0.039-0.822-0.096-1.091c-3.446-2.187-6.482-4.238-9.108-6.153l0.215-0.629c1.474,1.101,3.082,2.239,4.824,3.416
		l0.657-0.893L7.115,7.151l2.204-2.996l3.879,2.854l0.558-0.758L8.911,2.687l0.372-0.505l4.845,3.563l0.502-0.683l0.637,0.469
		l-0.502,0.683l4.802,3.532L19.194,10.251z M7.31,13.352L6.58,13.496c-0.25-0.869-0.579-1.672-0.99-2.411l0.718-0.127
		C6.697,11.62,7.03,12.417,7.31,13.352z M11.358,9.51l0.574-0.78L8.684,6.341L8.11,7.121L11.358,9.51z M12.292,8.241l0.542-0.737
		L9.585,5.115L9.043,5.851L12.292,8.241z M14.23,13.405c-0.076-0.371-0.132-0.611-0.168-0.721l0.601,0.02l-3.032-2.23l-0.633,0.86
		C12.321,12.212,13.399,12.904,14.23,13.405z M15.224,12.354l0.574-0.78l-3.229-2.375l-0.574,0.78L15.224,12.354z M16.158,11.084
		l0.542-0.736L13.47,7.972l-0.542,0.737L16.158,11.084z"/>
	<path d="M25.919,27.059l-0.571,0.45l-2.525-1.833c-1.485-1.093-2.543-1.931-3.174-2.514c-0.631-0.582-1.171-1.217-1.62-1.904
		c-0.45-0.688-0.763-1.405-0.94-2.154c-0.678,0.523-1.279,0.912-1.804,1.167l-0.331-0.649c1.201-0.592,2.469-1.634,3.806-3.126
		l0.544,0.508c-0.619,0.666-1.159,1.195-1.617,1.586c0.072,0.584,0.286,1.205,0.639,1.863l2.528-3.437l-2.585-1.901l0.38-0.517
		l5.421,3.988l-0.38,0.517l-2.209-1.625l-1.056,1.436l1.815,1.336l-0.412,0.559l-1.815-1.336l-1.238,1.683
		c0.451,0.658,1.07,1.315,1.858,1.972c0.787,0.656,1.862,1.486,3.224,2.488C24.584,26.152,25.271,26.632,25.919,27.059z
		 M24.155,17.498l-4.432-3.26l2.429-3.302l4.432,3.26L24.155,17.498z M23.917,16.511l0.672-0.914l-3.193-2.349l-0.672,0.914
		L23.917,16.511z M31.675,18.77l-2.281-1.678c-0.307,0.267-0.69,0.525-1.151,0.778l2.246,1.652l-3.469,4.716l-2.919-2.147
		l0.084,0.659c-1.252,0.162-2.313,0.207-3.185,0.135l-0.172-0.74c0.839,0.125,1.906,0.09,3.201-0.107l-1.162-0.854l3.469-4.716
		l1.281,0.942c0.355-0.175,0.74-0.433,1.156-0.774l-2.037-1.499l0.38-0.516l4.938,3.633L31.675,18.77z M24.966,15.085l0.621-0.844
		l-3.193-2.349l-0.621,0.844L24.966,15.085z M26.778,23.281l0.657-0.893l-2.938-2.16l-0.657,0.893L26.778,23.281z M26.22,26.162
		l-0.692,0.153c-0.181-0.834-0.474-1.672-0.878-2.511l0.648-0.22C25.735,24.553,26.042,25.412,26.22,26.162z M27.807,21.883
		l0.665-0.903l-2.938-2.161l-0.665,0.903L27.807,21.883z M28.835,20.485l0.641-0.872l-2.938-2.161l-0.641,0.872L28.835,20.485z"/>
	<path d="M37.108,34.137l-4.938-3.633l0.014,0.541c-1.799-0.34-3.4-0.918-4.802-1.733l0.013-0.778
		c1.44,0.861,2.963,1.467,4.566,1.817l-2.354-1.73l2.438-3.313l7.5,5.518L37.108,34.137z M36.813,33.241l0.381-0.516l-6.297-4.633
		l-0.381,0.517L36.813,33.241z M37.518,32.284l0.379-0.516L31.6,27.135l-0.379,0.517L37.518,32.284z M42.329,30.287l-1.941-1.429
		l-0.928,1.034l-6.809-5.009l0.932-1.03l-1.871-1.376l0.309-0.419l1.932,1.42l0.914-0.969l6.785,4.991l-0.902,0.978l1.889,1.39
		L42.329,30.287z M38.222,31.327l0.372-0.506l-6.297-4.632l-0.372,0.505L38.222,31.327z M42.635,28.92l-0.619-0.455l0.763-1.038
		L34.314,21.2l-0.731,0.995l-0.626-0.46l1.079-1.468l4.516,3.322c0.038-0.259,0.05-0.495,0.033-0.705l0.723,0.241
		c0.002,0.212-0.017,0.538-0.059,0.977l4.498,3.309L42.635,28.92z M36.657,26.114l-2.441-1.796l-0.559,0.609l2.455,1.806
		L36.657,26.114z M37.745,36.18l-0.59,0.304c-0.795-1.132-1.945-2.397-3.45-3.798l0.581-0.252
		C35.797,33.839,36.951,35.088,37.745,36.18z M37.543,25.159l-2.447-1.801l-0.537,0.566l2.467,1.814L37.543,25.159z M39.754,28.393
		l-2.465-1.814l-0.547,0.618l2.467,1.813L39.754,28.393z M40.659,27.451l-2.477-1.823l-0.52,0.58l2.473,1.819L40.659,27.451z"/>
	<path d="M49.536,30.873c-0.646,0.337-1.239,0.636-1.778,0.896l-0.787,0.358l-5.515,7.496l-0.654-0.482l4.738-6.442
		c-1.347,0.374-2.233,0.589-2.66,0.646l0.057-0.813c2.059-0.369,4.101-1.136,6.124-2.299L49.536,30.873z M55.324,38.131
		l-3.866-2.845l-1.412,1.92l3.331,2.45l-0.411,0.56l-3.331-2.45l-1.516,2.06l3.563,2.62l-0.423,0.576l-3.563-2.621l-1.82,2.475
		l-0.648-0.479l5.582-7.588l-1.133-0.832c-1.008,0.539-2.219,0.975-3.632,1.306l-0.081-0.788c1.828-0.381,3.666-1.225,5.516-2.531
		l0.41,0.641c-0.251,0.191-0.76,0.524-1.525,1l5.379,3.957L55.324,38.131z"/>
</g>
</svg>
