<?xml version="1.0" encoding="utf-8"?>
<!-- Generator: Adobe Illustrator 16.0.0, SVG Export Plug-In . SVG Version: 6.00 Build 0)  -->
<!DOCTYPE svg PUBLIC "-//W3C//DTD SVG 1.1//EN" "http://www.w3.org/Graphics/SVG/1.1/DTD/svg11.dtd">
<svg version="1.1" id="圖層_2" xmlns="http://www.w3.org/2000/svg" xmlns:xlink="http://www.w3.org/1999/xlink" x="0px" y="0px"
	 width="31.229px" height="21.789px" viewBox="0 0 31.229 21.789" enable-background="new 0 0 31.229 21.789" xml:space="preserve">
<g enable-background="new    ">
	<path d="M7.275,13.54l-0.547,0.376c-0.151-0.247-0.254-0.437-0.311-0.571c-1.112,0.506-2.21,0.942-3.294,1.31l-0.296-0.602
		c0.555-0.748,1.072-1.913,1.552-3.496c-0.813,0.263-1.44,0.454-1.885,0.57l-0.3-0.581c0.637-1.104,1.093-2.621,1.366-4.554
		L4.251,6.04c-0.196,1.651-0.588,3.05-1.178,4.195C3.389,10.16,3.906,10,4.622,9.756C4.866,8.635,5.015,7.884,5.068,7.5L5.79,7.555
		c-0.443,2.528-1.104,4.571-1.982,6.13c0.915-0.313,1.658-0.612,2.229-0.896c-0.214-0.365-0.421-0.666-0.622-0.901l0.528-0.329
		C6.495,12.2,6.939,12.862,7.275,13.54z M4.467,15.038c0.069,1.305-0.016,2.478-0.252,3.521l-0.637-0.12
		c0.178-0.872,0.259-2.016,0.244-3.43L4.467,15.038z M6.663,17.455L6.037,17.79c-0.164-0.737-0.502-1.698-1.015-2.882l0.534-0.232
		C6.021,15.47,6.39,16.396,6.663,17.455z M13.957,6.874l-0.165,0.678c-0.585-0.104-1.346-0.332-2.282-0.683l0.098,0.468L7.958,8.099
		L7.872,7.686c-0.42,0.464-0.883,0.921-1.391,1.371L5.94,8.612C7.414,7.295,8.431,6.04,8.991,4.844l0.797,0.04
		C9.743,4.986,9.712,5.052,9.694,5.079C10.83,5.935,12.251,6.533,13.957,6.874z M8.039,16.114l-0.55,0.362
		c-0.253-0.555-0.647-1.19-1.18-1.909l0.539-0.274C7.248,14.751,7.645,15.359,8.039,16.114z M13.94,11.393l-6.347,1.325L6.842,9.116
		l6.347-1.325L13.94,11.393z M10.255,11.512L9.769,9.183L7.665,9.623l0.486,2.329L10.255,11.512z M14.61,16.403l-0.701,0.146
		l-0.122-0.582l-4.195,0.876l0.122,0.582l-0.695,0.146l-0.88-4.212l5.592-1.168L14.61,16.403z M11.207,6.742
		c-0.518-0.208-1.132-0.553-1.844-1.036C9.097,6.158,8.695,6.715,8.156,7.379L11.207,6.742z M9.709,10.906l-0.511,0.409
		c-0.267-0.368-0.611-0.735-1.034-1.105L8.676,9.8C9.078,10.14,9.423,10.509,9.709,10.906z M13.339,13.821l-0.171-0.819
		l-4.195,0.876l0.171,0.819L13.339,13.821z M13.655,15.331l-0.186-0.888l-4.195,0.876l0.186,0.888L13.655,15.331z M13.156,10.906
		l-0.486-2.329l-2.207,0.461l0.486,2.329L13.156,10.906z M12.366,9.368c-0.098,0.463-0.281,0.944-0.552,1.444L11.174,10.6
		c0.26-0.478,0.446-0.946,0.56-1.403L12.366,9.368z"/>
	<path d="M28.556,7.691L16.447,10.22l-0.113-0.542l5.721-1.195L21.89,7.698l-4.74,0.99l-0.113-0.542l4.74-0.99l-0.165-0.792
		l-4.446,0.929l-0.111-0.528l4.447-0.929L21.34,5.064l-5.666,1.183l-0.11-0.528l5.666-1.183l-0.16-0.765l-4.461,0.932l-0.109-0.528
		l4.461-0.932l-0.159-0.759l0.682-0.142l0.158,0.759l4.298-0.897l0.27,1.293l1.369-0.286l0.11,0.528L26.32,4.024l0.271,1.3
		l-4.299,0.897l0.166,0.792l4.732-0.988l0.113,0.542l-4.732,0.988l0.164,0.785l5.707-1.191L28.556,7.691z M29.683,13.088
		l-12.109,2.528l-0.113-0.543l12.109-2.528L29.683,13.088z M27.909,11.98l-9.194,1.92l-0.672-3.216l9.194-1.92L27.909,11.98z
		 M22.598,11.154l-0.174-0.833l-3.569,0.745l0.174,0.833L22.598,11.154z M22.874,12.479L22.7,11.647l-3.568,0.745l0.174,0.832
		L22.874,12.479z M25.487,3.647l-0.159-0.765l-3.576,0.747l0.16,0.765L25.487,3.647z M25.758,4.947l-0.161-0.771l-3.576,0.747
		l0.162,0.771L25.758,4.947z M26.821,10.272l-0.174-0.833l-3.528,0.736l0.174,0.833L26.821,10.272z M27.097,11.599l-0.174-0.832
		l-3.527,0.736l0.174,0.832L27.097,11.599z"/>
</g>
</svg>
