<?xml version="1.0" encoding="utf-8"?>
<!-- Generator: Adobe Illustrator 16.0.0, SVG Export Plug-In . SVG Version: 6.00 Build 0)  -->
<!DOCTYPE svg PUBLIC "-//W3C//DTD SVG 1.1//EN" "http://www.w3.org/Graphics/SVG/1.1/DTD/svg11.dtd">
<svg version="1.1" id="圖層_2" xmlns="http://www.w3.org/2000/svg" xmlns:xlink="http://www.w3.org/1999/xlink" x="0px" y="0px"
	 width="54.066px" height="28.253px" viewBox="0 0 54.066 28.253" enable-background="new 0 0 54.066 28.253" xml:space="preserve">
<g enable-background="new    ">
	<path d="M13.176,14.806l-0.637,0.156l-0.438-1.785L3.31,15.334l0.438,1.785L3.11,17.276l-0.604-2.462l4.776-1.172
		c-0.109-0.179-0.372-0.512-0.79-0.997l0.591-0.396c0.294,0.315,0.611,0.718,0.952,1.208l4.537-1.113L13.176,14.806z M15.551,22.745
		L4.677,25.412l-0.169-0.69l5.094-1.249l-0.459-1.873l-4.39,1.076l-0.169-0.69l4.391-1.076l-0.389-1.583
		c-1.538,0.501-2.873,0.902-4.002,1.204l-0.294-0.618c1.048-0.811,1.941-1.931,2.681-3.359l-2.607,0.64l-0.166-0.678l7.677-1.883
		l0.166,0.678l-4.218,1.034c-0.477,1.093-1.178,2.132-2.104,3.119c1.625-0.433,3.561-1.085,5.81-1.956
		c-0.433-0.229-0.974-0.45-1.624-0.663l0.392-0.605c1.451,0.52,2.615,1.104,3.493,1.754l-0.37,0.607
		c-0.306-0.24-0.638-0.458-0.998-0.651l-3.182,1.13l0.408,1.665L14,19.675l0.169,0.69l-4.353,1.067l0.459,1.873l5.106-1.252
		L15.551,22.745z"/>
	<path d="M27.316,18.948c0.079,0.32,0.06,0.594-0.059,0.818c-0.118,0.226-0.302,0.379-0.552,0.465
		c-0.249,0.085-0.58,0.179-0.992,0.28c-0.29,0.07-0.567,0.131-0.832,0.181l-0.463-0.696c0.669-0.093,1.292-0.209,1.868-0.35
		c0.114-0.028,0.206-0.104,0.275-0.227c0.069-0.121,0.085-0.259,0.048-0.412l-1.845-7.522l-3.6,0.883
		c0.679,1.904,2.222,3.556,4.63,4.959l-0.347,0.623c-2.175-1.316-3.657-2.763-4.446-4.338c-0.169,1.954-0.833,3.907-1.989,5.86
		l-0.595-0.414c1.209-1.794,1.865-3.96,1.969-6.5l-3.899,0.957l2.17,8.848l-0.673,0.165l-2.354-9.599l4.622-1.134
		c-0.146-0.419-0.33-1.009-0.552-1.772l-1.182,0.29l-0.177-0.724l1.831-0.449c0.041,0.22,0.09,0.447,0.147,0.681
		c0.133,0.54,0.32,1.147,0.563,1.82l4.377-1.074L27.316,18.948z"/>
	<path d="M31.878,8.521L27.44,9.609l-0.177-0.724l1.959-0.48c-0.21-0.374-0.476-0.739-0.802-1.095l0.505-0.432
		c0.358,0.385,0.686,0.838,0.982,1.358l1.794-0.44L31.878,8.521z M32.034,10.612l-3.851,0.944l-0.172-0.696l3.852-0.944
		L32.034,10.612z M32.522,12.651l-3.852,0.944l-0.17-0.696l3.851-0.944L32.522,12.651z M33.733,18.356l-0.648,0.159l-0.187-0.758
		l-2.271,0.558l0.251,1.021l-0.648,0.159l-1.132-4.613l3.568-0.876L33.733,18.356z M32.724,17.047l-0.526-2.145l-2.271,0.558
		l0.526,2.145L32.724,17.047z M39.014,9.854l-1.219,0.299c-0.6,0.147-0.977-0.098-1.133-0.734l-0.731-2.983L33.72,6.979
		c0.293,1.281,0.371,2.267,0.235,2.958s-0.413,1.276-0.832,1.755l-0.612-0.38c0.413-0.469,0.679-1.04,0.797-1.711
		c0.119-0.672-0.008-1.726-0.382-3.159l3.46-0.849l0.85,3.464c0.076,0.311,0.253,0.433,0.53,0.365l1.077-0.265L39.014,9.854z
		 M40.667,16.383l-0.228,0.688c-1.383-0.154-2.493-0.446-3.33-0.877c-0.649,0.829-1.526,1.582-2.633,2.26l-0.537-0.499
		c1.16-0.72,1.994-1.424,2.499-2.112c-1.08-0.667-1.999-1.688-2.757-3.067l-0.429,0.105l-0.173-0.703l5.253-1.289l0.173,0.703
		c-0.142,1.751-0.479,3.086-1.011,4.006C38.345,15.988,39.402,16.25,40.667,16.383z M37.796,11.766l-3.447,0.846
		c0.767,1.256,1.605,2.138,2.519,2.646C37.427,14.312,37.737,13.148,37.796,11.766z"/>
	<path d="M45.247,5.521l-5.191,1.273l-0.178-0.724l2.369-0.582c-0.299-0.423-0.669-0.856-1.11-1.298l0.557-0.43
		c0.382,0.356,0.809,0.873,1.282,1.55l2.094-0.514L45.247,5.521z M45.097,7.66l-3.974,0.975l-0.171-0.697l3.974-0.975L45.097,7.66z
		 M45.574,9.608l-3.974,0.975l-0.166-0.677l3.974-0.975L45.574,9.608z M46.968,15.29l-0.643,0.157l-0.166-0.676l-2.682,0.658
		l0.192,0.785l-0.648,0.159l-1.094-4.459l3.974-0.975L46.968,15.29z M45.979,14.034l-0.551-2.246l-2.682,0.658l0.551,2.246
		L45.979,14.034z M51.561,6.439l-2.504,0.614l1.82,7.42l-0.68,0.167l-1.82-7.421L45.88,7.833l-0.182-0.737l2.498-0.613l-0.968-3.944
		l0.68-0.167l0.968,3.944l2.504-0.614L51.561,6.439z"/>
</g>
</svg>
