<?xml version="1.0" encoding="utf-8"?>
<!-- Generator: Adobe Illustrator 16.0.0, SVG Export Plug-In . SVG Version: 6.00 Build 0)  -->
<!DOCTYPE svg PUBLIC "-//W3C//DTD SVG 1.1//EN" "http://www.w3.org/Graphics/SVG/1.1/DTD/svg11.dtd">
<svg version="1.1" id="圖層_2" xmlns="http://www.w3.org/2000/svg" xmlns:xlink="http://www.w3.org/1999/xlink" x="0px" y="0px"
	 width="36.193px" height="33.039px" viewBox="0 0 36.193 33.039" enable-background="new 0 0 36.193 33.039" xml:space="preserve">
<g enable-background="new    ">
	<path d="M16.223,6.729c-0.771-0.322-1.759-0.851-2.962-1.588l-0.676,0.892l2.606,1.978l-0.415,0.546L12.17,6.578l-0.634,0.835
		l2.395,1.817l-2.52,3.32l-2.395-1.817l-0.613,0.808l2.395,1.817l-0.41,0.541l-2.395-1.817l-0.871,1.148
		c0.806,0.523,1.671,1.042,2.593,1.555l-0.427,0.563c-2.555-1.517-4.7-2.817-6.435-3.899l0.279-0.701
		c1.004,0.663,2.098,1.354,3.279,2.075l0.935-1.231L4.92,9.751l0.41-0.541l2.427,1.841l0.613-0.808L5.961,8.417l2.52-3.321
		l2.408,1.827l0.634-0.836L8.656,3.911L9.07,3.365l2.868,2.176l0.613-0.808c-0.765-0.499-1.594-1.086-2.486-1.763l0.18-0.689
		c1.963,1.525,3.96,2.759,5.99,3.702L16.223,6.729z M8.784,9.698l0.66-0.869L7.701,7.507l-0.66,0.869L8.784,9.698z M9.858,8.283
		l0.601-0.791L8.716,6.17L8.115,6.961L9.858,8.283z M19.409,11.93c-1.277,1.683-2.468,3.187-3.571,4.513
		c-1.103,1.326-1.788,2.072-2.052,2.24c-0.265,0.167-0.56,0.227-0.881,0.178c-0.323-0.049-0.803-0.315-1.438-0.797
		c-0.175-0.133-0.327-0.257-0.455-0.372l0.225-0.76c0.475,0.384,0.892,0.712,1.25,0.984c0.167,0.127,0.357,0.186,0.571,0.179
		c0.213-0.007,0.418-0.122,0.613-0.343l1.788-2.103c0.993-1.184,1.957-2.393,2.893-3.626l-1.376-1.044
		c-2.163,2.779-4.654,4.678-7.474,5.699L9.102,15.98c2.633-0.899,5.042-2.73,7.226-5.493l-1.411-1.053l0.431-0.568l1.437,1.072
		l1.74-2.201l0.653,0.496c-0.722,0.916-1.309,1.644-1.759,2.185L19.409,11.93z M11.173,11.51l0.66-0.869L10.09,9.319l-0.66,0.869
		L11.173,11.51z M12.246,10.095l0.601-0.791l-1.742-1.322l-0.601,0.792L12.246,10.095z"/>
	<path d="M27.288,29.867l-11.384-8.638l0.338-0.446l11.384,8.639L27.288,29.867z M26.782,27.648l-8.644-6.559l2.008-2.646
		l8.644,6.559L26.782,27.648z M22.483,23.701l0.521-0.686l-3.355-2.545l-0.52,0.686L22.483,23.701z M30.657,25.426l-11.384-8.638
		l0.339-0.446l5.377,4.081l0.491-0.646l-4.456-3.381l0.338-0.446l4.456,3.381l0.495-0.652l-4.182-3.172l0.33-0.435l4.182,3.173
		l0.481-0.636l-5.327-4.042l0.33-0.435l5.326,4.042l0.479-0.63l-4.193-3.182l0.33-0.435l4.193,3.182l0.473-0.624l0.641,0.486
		l-0.473,0.624l4.039,3.065l-0.807,1.063l1.285,0.977l-0.329,0.436l-1.286-0.977l-0.813,1.069l-4.039-3.065l-0.495,0.652
		l4.449,3.376l-0.338,0.446l-4.449-3.377L25.63,20.91l5.365,4.071L30.657,25.426z M23.312,22.609l0.52-0.686l-3.354-2.545
		l-0.521,0.685L23.312,22.609z M26.452,26.713l0.52-0.686l-3.316-2.517l-0.52,0.686L26.452,26.713z M27.281,25.622l0.521-0.686
		l-3.316-2.517l-0.521,0.686L27.281,25.622z M30.646,21.282l0.481-0.636l-3.361-2.551l-0.481,0.636L30.646,21.282z M31.456,20.212
		l0.479-0.63l-3.361-2.551l-0.479,0.63L31.456,20.212z"/>
</g>
</svg>
