<?xml version="1.0" encoding="utf-8"?>
<!-- Generator: Adobe Illustrator 16.0.0, SVG Export Plug-In . SVG Version: 6.00 Build 0)  -->
<!DOCTYPE svg PUBLIC "-//W3C//DTD SVG 1.1//EN" "http://www.w3.org/Graphics/SVG/1.1/DTD/svg11.dtd">
<svg version="1.1" id="圖層_2" xmlns="http://www.w3.org/2000/svg" xmlns:xlink="http://www.w3.org/1999/xlink" x="0px" y="0px"
	 width="35.675px" height="26.656px" viewBox="0 0 35.675 26.656" enable-background="new 0 0 35.675 26.656" xml:space="preserve">
<g enable-background="new    ">
	<path d="M17.403,11.645L6.385,7.733L5.896,9.111c-0.838,2.362-1.961,3.891-3.368,4.584L2.165,13
		c0.589-0.326,1.122-0.796,1.598-1.412c0.478-0.616,0.832-1.249,1.063-1.901l1.036-2.919l11.787,4.186L17.403,11.645z
		 M15.105,17.701L4.335,13.877l0.236-0.665l5.162,1.833l0.465-1.31l-3.661-1.3l0.241-0.679l3.661,1.3l0.434-1.222l-3.215-1.141
		c-0.494,0.309-1.019,0.555-1.574,0.74l-0.261-0.75c0.98-0.33,1.917-0.895,2.811-1.693l0.647,0.475
		c-0.327,0.303-0.624,0.549-0.889,0.739l2.717,0.965l0.405-1.14l0.746,0.265l-0.405,1.14l4.123,1.464l-0.236,0.666l-4.123-1.464
		l-0.434,1.222l3.809,1.353l-0.241,0.678L10.944,14l-0.465,1.311l4.862,1.727L15.105,17.701z M18.393,7.677L16.1,6.863
		c-0.709,0.375-1.405,0.63-2.085,0.766c1.175,0.764,2.131,1.453,2.87,2.066l-0.628,0.419C15.258,9.292,14.149,8.5,12.928,7.74
		c-1.713,0.059-3.603-0.247-5.667-0.919L7.223,6.089c1.98,0.556,3.513,0.87,4.596,0.944c-1.083-0.665-2.18-1.289-3.292-1.873
		l0.547-0.448c1.476,0.779,2.808,1.55,3.993,2.312c0.728-0.082,1.393-0.259,1.994-0.53L6.487,3.45l0.241-0.679l5.623,1.997
		c-0.028-0.352-0.129-0.749-0.301-1.193l0.807-0.042c0.194,0.568,0.309,1.08,0.344,1.536l5.434,1.93L18.393,7.677z"/>
	<path d="M22.708,20.761l-0.775-0.275l0.35-0.984l-3.316-1.178l-0.35,0.984l-0.806-0.287l2.162-6.089l4.898,1.739L22.708,20.761z
		 M22.519,18.79l1.304-3.672l-3.302-1.173l-1.304,3.672L22.519,18.79z M30.939,15.045l-8.83-3.135l1.465-4.127l8.83,3.135
		L30.939,15.045z M30.401,14.075l0.969-2.729l-7.256-2.577l-0.969,2.729L30.401,14.075z M29.416,23.142l-0.799-0.283l0.35-0.984
		l-3.338-1.186l-0.35,0.984L24.48,21.39l2.162-6.09l4.936,1.753L29.416,23.142z M29.217,21.169l1.304-3.673l-3.338-1.185
		l-1.304,3.672L29.217,21.169z"/>
</g>
</svg>
