<?xml version="1.0" encoding="utf-8"?>
<!-- Generator: Adobe Illustrator 16.0.0, SVG Export Plug-In . SVG Version: 6.00 Build 0)  -->
<!DOCTYPE svg PUBLIC "-//W3C//DTD SVG 1.1//EN" "http://www.w3.org/Graphics/SVG/1.1/DTD/svg11.dtd">
<svg version="1.1" id="圖層_1" xmlns="http://www.w3.org/2000/svg" xmlns:xlink="http://www.w3.org/1999/xlink" x="0px" y="0px"
	 width="4096px" height="140.506px" viewBox="0 0 4096 140.506" enable-background="new 0 0 4096 140.506" xml:space="preserve">
<path fill="#9892C4" stroke="#9892C4" stroke-miterlimit="10" d="M0,48.434c0,0,153.88,153.866,423.768,17.122
	S800,48.434,800,48.434v92.072H0V48.434z"/>
<path fill="#9892C4" stroke="#9892C4" stroke-miterlimit="10" d="M800,48.434c0,0,153.88,153.866,423.768,17.122
	S1600,48.434,1600,48.434v92.072H800V48.434z"/>
<path fill="#9892C4" stroke="#9892C4" stroke-miterlimit="10" d="M1600,48.434c0,0,153.88,153.866,423.768,17.122
	S2400,48.434,2400,48.434v92.072h-800V48.434z"/>
<path fill="#9892C4" stroke="#9892C4" stroke-miterlimit="10" d="M2400,48.434c0,0,153.88,153.866,423.768,17.122
	C3093.656-71.188,3200,48.434,3200,48.434v92.072h-800V48.434z"/>
<path fill="#9892C4" stroke="#9892C4" stroke-miterlimit="10" d="M3200,48.434c0,0,153.88,153.866,423.768,17.122
	C3893.656-71.188,4000,48.434,4000,48.434v92.072h-800V48.434z"/>
<path fill="#9892C4" stroke="#9892C4" stroke-miterlimit="10" d="M4000,48.434c0,0,153.88,153.866,423.768,17.122
	C4693.656-71.188,4800,48.434,4800,48.434v92.072h-800V48.434z"/>
</svg>
