<?xml version="1.0" encoding="utf-8"?>
<!-- Generator: Adobe Illustrator 16.0.0, SVG Export Plug-In . SVG Version: 6.00 Build 0)  -->
<!DOCTYPE svg PUBLIC "-//W3C//DTD SVG 1.1//EN" "http://www.w3.org/Graphics/SVG/1.1/DTD/svg11.dtd">
<svg version="1.1" id="圖層_1" xmlns="http://www.w3.org/2000/svg" xmlns:xlink="http://www.w3.org/1999/xlink" x="0px" y="0px"
	 width="306.727px" height="28.326px" viewBox="0 0 306.727 28.326" enable-background="new 0 0 306.727 28.326"
	 xml:space="preserve">
<g>
	<path fill="#FFFFFF" d="M0.293,17.447l1.942-9.306h6.049l-0.221,1.06H3.259l-0.616,2.965h4.894l-0.222,1.062H2.42l-0.882,4.221
		L0.293,17.447L0.293,17.447z"/>
	<path fill="#FFFFFF" d="M8.279,14.89c0-1.315,0.387-2.405,1.162-3.269c0.639-0.712,1.477-1.066,2.514-1.066
		c0.813,0,1.468,0.254,1.964,0.762c0.498,0.508,0.746,1.193,0.746,2.057c0,0.774-0.156,1.495-0.47,2.161
		c-0.313,0.667-0.759,1.179-1.336,1.533c-0.578,0.354-1.186,0.533-1.825,0.533c-0.524,0-1.002-0.112-1.432-0.336
		c-0.429-0.226-0.757-0.542-0.983-0.953S8.279,15.428,8.279,14.89z M9.428,14.775c0,0.635,0.151,1.115,0.457,1.443
		c0.305,0.328,0.691,0.492,1.162,0.492c0.245,0,0.488-0.051,0.729-0.149s0.465-0.251,0.673-0.454s0.384-0.436,0.53-0.693
		c0.146-0.262,0.264-0.541,0.353-0.842c0.132-0.42,0.197-0.82,0.197-1.207c0-0.609-0.153-1.082-0.46-1.418
		c-0.307-0.337-0.693-0.505-1.158-0.505c-0.359,0-0.688,0.086-0.983,0.257c-0.296,0.172-0.564,0.422-0.804,0.752
		c-0.238,0.33-0.415,0.715-0.525,1.152C9.484,14.043,9.428,14.433,9.428,14.775z"/>
	<path fill="#FFFFFF" d="M15.218,17.447l1.941-9.306h1.149l-1.942,9.306H15.218z"/>
	<path fill="#FFFFFF" d="M18.105,17.447l1.942-9.306h1.148l-1.942,9.306H18.105z"/>
	<path fill="#FFFFFF" d="M21.285,14.89c0-1.315,0.388-2.405,1.162-3.269c0.639-0.712,1.478-1.066,2.514-1.066
		c0.813,0,1.468,0.254,1.965,0.762c0.498,0.508,0.745,1.193,0.745,2.057c0,0.774-0.156,1.495-0.47,2.161
		c-0.313,0.667-0.759,1.179-1.336,1.533c-0.578,0.354-1.186,0.533-1.825,0.533c-0.524,0-1.002-0.112-1.432-0.336
		c-0.429-0.226-0.757-0.542-0.983-0.953S21.285,15.428,21.285,14.89z M22.434,14.775c0,0.635,0.151,1.115,0.457,1.443
		c0.305,0.328,0.691,0.492,1.162,0.492c0.246,0,0.488-0.051,0.729-0.149s0.465-0.251,0.673-0.454s0.385-0.436,0.53-0.693
		c0.146-0.262,0.264-0.541,0.354-0.842c0.131-0.42,0.196-0.82,0.196-1.207c0-0.609-0.152-1.082-0.46-1.418
		c-0.307-0.337-0.692-0.505-1.158-0.505c-0.359,0-0.688,0.086-0.983,0.257c-0.296,0.172-0.564,0.422-0.803,0.752
		c-0.239,0.33-0.415,0.715-0.526,1.152C22.49,14.043,22.434,14.433,22.434,14.775z"/>
	<path fill="#FFFFFF" d="M29.594,17.447l-0.705-6.74h1.104l0.306,3.027l0.12,1.701c0.009,0.127,0.021,0.383,0.038,0.768
		c0.127-0.432,0.235-0.763,0.324-0.992c0.089-0.23,0.23-0.561,0.425-0.987l1.606-3.517h1.25l0.222,3.369
		c0.034,0.514,0.056,1.196,0.063,2.051c0.211-0.566,0.557-1.354,1.035-2.36l1.446-3.06h1.149l-3.294,6.74h-1.193l-0.254-3.955
		c-0.017-0.244-0.03-0.723-0.038-1.434C33.026,12.51,32.82,13,32.583,13.524L30.8,17.447H29.594z"/>
	<path fill="#FFFFFF" d="M42.594,17.447l-0.705-6.74h1.104l0.306,3.027l0.12,1.701c0.009,0.127,0.021,0.383,0.038,0.768
		c0.127-0.432,0.235-0.763,0.324-0.992c0.089-0.23,0.23-0.561,0.425-0.987l1.606-3.517h1.25l0.222,3.369
		c0.034,0.514,0.056,1.196,0.063,2.051c0.211-0.566,0.557-1.354,1.035-2.36l1.446-3.06h1.149l-3.294,6.74h-1.193l-0.254-3.955
		c-0.017-0.244-0.03-0.723-0.038-1.434C46.026,12.51,45.82,13,45.583,13.524L43.8,17.447H42.594z"/>
	<path fill="#FFFFFF" d="M50.656,17.447l1.409-6.74h1.149l-1.409,6.74H50.656z M52.331,9.443l0.273-1.302h1.143l-0.272,1.302H52.331
		z"/>
	<path fill="#FFFFFF" d="M56.273,16.515l-0.19,0.938c-0.274,0.072-0.542,0.108-0.8,0.108c-0.457,0-0.821-0.112-1.092-0.337
		c-0.203-0.169-0.305-0.399-0.305-0.691c0-0.148,0.055-0.488,0.165-1.021l0.818-3.917h-0.907l0.185-0.889h0.908l0.349-1.658
		l1.314-0.793l-0.516,2.451h1.13l-0.189,0.889h-1.124l-0.781,3.726c-0.097,0.476-0.146,0.759-0.146,0.853
		c0,0.135,0.039,0.238,0.117,0.311s0.206,0.107,0.385,0.107C55.848,16.59,56.075,16.565,56.273,16.515z"/>
	<path fill="#FFFFFF" d="M57.2,17.447l1.942-9.306h1.148l-0.742,3.573c0.427-0.414,0.824-0.713,1.192-0.893s0.747-0.27,1.136-0.27
		c0.56,0,0.992,0.146,1.302,0.44c0.309,0.294,0.463,0.683,0.463,1.165c0,0.236-0.068,0.672-0.203,1.307l-0.832,3.98h-1.149
		l0.857-4.082c0.123-0.592,0.184-0.965,0.184-1.117c0-0.22-0.075-0.398-0.229-0.539c-0.153-0.14-0.373-0.209-0.66-0.209
		c-0.415,0-0.811,0.108-1.187,0.326c-0.377,0.219-0.673,0.518-0.887,0.896c-0.213,0.379-0.409,0.988-0.587,1.83l-0.603,2.896
		L57.2,17.447L57.2,17.447z"/>
	<path fill="#FFFFFF" d="M68.036,17.447l1.409-6.74h1.149l-0.235,1.109c0.427-0.479,0.809-0.809,1.146-0.99
		c0.336-0.182,0.7-0.271,1.095-0.271c0.419,0,0.769,0.111,1.051,0.333c0.281,0.223,0.466,0.532,0.555,0.93
		c0.344-0.423,0.704-0.739,1.083-0.948c0.378-0.21,0.777-0.313,1.196-0.313c0.563,0,0.985,0.134,1.267,0.399
		c0.281,0.268,0.423,0.642,0.423,1.123c0,0.207-0.05,0.551-0.146,1.028l-0.908,4.342h-1.148l0.927-4.456
		c0.081-0.363,0.121-0.624,0.121-0.779c0-0.222-0.07-0.396-0.209-0.521c-0.14-0.126-0.336-0.189-0.59-0.189
		c-0.344,0-0.692,0.104-1.047,0.312c-0.355,0.207-0.632,0.479-0.829,0.815c-0.196,0.336-0.369,0.854-0.518,1.552l-0.686,3.27h-1.149
		l0.952-4.551c0.068-0.31,0.102-0.528,0.102-0.66c0-0.221-0.068-0.397-0.205-0.532c-0.139-0.137-0.316-0.203-0.537-0.203
		c-0.326,0-0.667,0.104-1.025,0.311s-0.649,0.496-0.873,0.866s-0.408,0.897-0.552,1.584l-0.667,3.187h-1.15V17.447z"/>
	<path fill="#FFFFFF" d="M83.822,15.156l1.117,0.113c-0.161,0.555-0.53,1.082-1.107,1.581c-0.578,0.499-1.267,0.749-2.065,0.749
		c-0.5,0-0.958-0.115-1.374-0.346c-0.417-0.23-0.734-0.566-0.952-1.006c-0.218-0.44-0.327-0.942-0.327-1.506
		c0-0.736,0.17-1.449,0.511-2.143c0.342-0.691,0.782-1.206,1.324-1.542c0.542-0.337,1.128-0.505,1.758-0.505
		c0.805,0,1.446,0.25,1.928,0.748c0.479,0.5,0.72,1.182,0.72,2.045c0,0.33-0.03,0.669-0.089,1.016h-4.964
		c-0.018,0.131-0.025,0.25-0.025,0.355c0,0.631,0.145,1.111,0.435,1.443s0.645,0.498,1.063,0.498c0.394,0,0.781-0.129,1.162-0.387
		C83.314,16.016,83.611,15.644,83.822,15.156z M80.483,13.486h3.783c0.004-0.118,0.006-0.203,0.006-0.254
		c0-0.575-0.145-1.018-0.432-1.323c-0.288-0.306-0.658-0.46-1.111-0.46c-0.491,0-0.938,0.169-1.343,0.508
		C80.984,12.295,80.682,12.806,80.483,13.486z"/>
	<path fill="#FFFFFF" d="M94.259,16.609c-0.398,0.344-0.781,0.594-1.149,0.752c-0.368,0.159-0.762,0.238-1.181,0.238
		c-0.622,0-1.124-0.184-1.504-0.549c-0.381-0.366-0.571-0.836-0.571-1.406c0-0.377,0.086-0.71,0.257-1
		c0.172-0.29,0.399-0.521,0.683-0.698c0.284-0.176,0.631-0.302,1.041-0.378c0.259-0.051,0.748-0.091,1.471-0.12
		c0.721-0.028,1.238-0.104,1.552-0.229c0.089-0.313,0.133-0.572,0.133-0.779c0-0.268-0.097-0.477-0.292-0.629
		c-0.267-0.212-0.656-0.317-1.168-0.317c-0.481,0-0.877,0.106-1.184,0.32c-0.308,0.214-0.53,0.519-0.669,0.911l-1.163-0.102
		c0.236-0.668,0.611-1.181,1.127-1.535c0.514-0.355,1.163-0.533,1.944-0.533c0.833,0,1.494,0.199,1.98,0.597
		c0.373,0.296,0.559,0.683,0.559,1.155c0,0.359-0.053,0.775-0.158,1.251l-0.375,1.676c-0.119,0.533-0.179,0.967-0.179,1.301
		c0,0.212,0.046,0.517,0.141,0.914H94.39C94.328,17.229,94.283,16.948,94.259,16.609z M94.683,14.032
		c-0.161,0.063-0.333,0.112-0.518,0.146c-0.185,0.035-0.491,0.07-0.924,0.109c-0.668,0.06-1.141,0.135-1.416,0.226
		c-0.274,0.091-0.481,0.235-0.622,0.435c-0.14,0.2-0.209,0.419-0.209,0.66c0,0.32,0.111,0.586,0.333,0.794
		c0.224,0.207,0.539,0.312,0.949,0.312c0.381,0,0.747-0.102,1.098-0.303c0.352-0.201,0.628-0.48,0.832-0.841
		S94.569,14.696,94.683,14.032z"/>
	<path fill="#FFFFFF" d="M96.943,17.447l1.409-6.74h1.041l-0.248,1.174c0.453-0.461,0.876-0.797,1.27-1.01
		c0.395-0.212,0.795-0.316,1.206-0.316c0.546,0,0.975,0.148,1.286,0.443c0.312,0.297,0.466,0.691,0.466,1.188
		c0,0.249-0.055,0.644-0.165,1.18l-0.856,4.082h-1.149l0.896-4.271c0.089-0.415,0.133-0.723,0.133-0.922
		c0-0.225-0.077-0.405-0.232-0.545c-0.153-0.141-0.377-0.209-0.669-0.209c-0.588,0-1.111,0.211-1.57,0.635
		c-0.459,0.423-0.798,1.147-1.014,2.177l-0.653,3.136h-1.148V17.447z"/>
	<path fill="#FFFFFF" d="M108.719,16.471c-0.656,0.753-1.342,1.13-2.058,1.13c-0.639,0-1.171-0.236-1.597-0.708
		c-0.425-0.473-0.638-1.156-0.638-2.055c0-0.819,0.168-1.569,0.505-2.25c0.336-0.679,0.757-1.188,1.263-1.525
		c0.506-0.339,1.013-0.508,1.521-0.508c0.838,0,1.471,0.404,1.897,1.212l0.762-3.624h1.144l-1.942,9.306h-1.06L108.719,16.471z
		 M105.569,14.623c0,0.469,0.046,0.84,0.14,1.11c0.095,0.271,0.252,0.496,0.477,0.676c0.224,0.181,0.493,0.271,0.806,0.271
		c0.521,0,0.992-0.271,1.416-0.813c0.567-0.72,0.852-1.607,0.852-2.666c0-0.533-0.141-0.949-0.419-1.251
		c-0.279-0.301-0.631-0.45-1.055-0.45c-0.274,0-0.525,0.062-0.752,0.185c-0.226,0.123-0.45,0.331-0.673,0.625
		c-0.222,0.294-0.409,0.668-0.562,1.121C105.645,13.883,105.569,14.279,105.569,14.623z"/>
	<path fill="#FFFFFF" d="M115.326,17.447l1.949-9.306h1.238l-1.942,9.306H115.326z"/>
	<path fill="#FFFFFF" d="M119.845,11.437l0.075-1.738l0.33-1.556h1.309l-0.336,1.556l-0.667,1.738H119.845z"/>
	<path fill="#FFFFFF" d="M121.019,17.447l1.941-9.306h1.149l-1.942,9.306H121.019z"/>
	<path fill="#FFFFFF" d="M123.908,17.447l1.942-9.306h1.148l-1.941,9.306H123.908z"/>
	<path fill="#FFFFFF" d="M133.182,16.515l-0.19,0.938c-0.274,0.072-0.542,0.108-0.8,0.108c-0.457,0-0.821-0.112-1.092-0.337
		c-0.203-0.169-0.306-0.399-0.306-0.691c0-0.148,0.056-0.488,0.165-1.021l0.819-3.917h-0.908l0.185-0.889h0.908l0.349-1.658
		l1.313-0.793l-0.514,2.451h1.13l-0.189,0.889h-1.124l-0.781,3.726c-0.097,0.476-0.146,0.759-0.146,0.853
		c0,0.135,0.039,0.238,0.118,0.311c0.078,0.072,0.206,0.107,0.384,0.107C132.757,16.59,132.983,16.565,133.182,16.515z"/>
	<path fill="#FFFFFF" d="M138.653,16.609c-0.397,0.344-0.781,0.594-1.149,0.752c-0.367,0.159-0.762,0.238-1.181,0.238
		c-0.622,0-1.124-0.184-1.504-0.549c-0.38-0.366-0.571-0.836-0.571-1.406c0-0.377,0.086-0.71,0.258-1s0.398-0.521,0.683-0.698
		c0.284-0.176,0.63-0.302,1.041-0.378c0.258-0.051,0.748-0.091,1.47-0.12c0.721-0.028,1.239-0.104,1.552-0.229
		c0.09-0.313,0.134-0.572,0.134-0.779c0-0.268-0.098-0.477-0.292-0.629c-0.268-0.212-0.656-0.317-1.168-0.317
		c-0.482,0-0.877,0.106-1.185,0.32c-0.307,0.214-0.53,0.519-0.669,0.911l-1.162-0.102c0.237-0.67,0.612-1.182,1.127-1.537
		c0.515-0.354,1.163-0.533,1.945-0.533c0.833,0,1.494,0.199,1.979,0.598c0.373,0.296,0.56,0.682,0.56,1.155
		c0,0.358-0.053,0.776-0.159,1.251l-0.375,1.676c-0.119,0.533-0.178,0.967-0.178,1.301c0,0.213,0.046,0.518,0.14,0.914h-1.162
		C138.723,17.229,138.679,16.948,138.653,16.609z M139.078,14.032c-0.161,0.063-0.333,0.112-0.517,0.146
		c-0.186,0.035-0.492,0.07-0.924,0.109c-0.668,0.06-1.142,0.135-1.416,0.226c-0.275,0.091-0.482,0.235-0.622,0.435
		c-0.141,0.2-0.209,0.419-0.209,0.66c0,0.32,0.11,0.586,0.333,0.794c0.223,0.207,0.539,0.312,0.949,0.312
		c0.381,0,0.746-0.102,1.098-0.303c0.351-0.201,0.628-0.48,0.832-0.841S138.965,14.696,139.078,14.032z"/>
	<path fill="#FFFFFF" d="M141.351,17.447l1.949-9.306h1.143l-1.206,5.771l3.353-3.205h1.517l-2.875,2.514l1.739,4.228h-1.257
		l-1.347-3.459l-1.396,1.205l-0.471,2.254L141.351,17.447L141.351,17.447z"/>
	<path fill="#FFFFFF" d="M152.789,15.156l1.117,0.113c-0.161,0.555-0.53,1.082-1.106,1.581c-0.578,0.499-1.268,0.749-2.066,0.749
		c-0.5,0-0.958-0.115-1.374-0.346c-0.417-0.23-0.734-0.566-0.952-1.006c-0.218-0.44-0.327-0.942-0.327-1.506
		c0-0.736,0.17-1.449,0.512-2.143c0.341-0.691,0.781-1.206,1.323-1.542c0.542-0.337,1.128-0.505,1.759-0.505
		c0.804,0,1.445,0.25,1.927,0.748c0.479,0.5,0.72,1.182,0.72,2.045c0,0.33-0.03,0.669-0.089,1.016h-4.964
		c-0.018,0.131-0.025,0.25-0.025,0.355c0,0.631,0.146,1.111,0.436,1.443s0.644,0.498,1.063,0.498c0.395,0,0.781-0.129,1.162-0.387
		C152.282,16.016,152.578,15.644,152.789,15.156z M149.451,13.486h3.783c0.004-0.118,0.006-0.203,0.006-0.254
		c0-0.575-0.144-1.018-0.432-1.323s-0.658-0.46-1.111-0.46c-0.491,0-0.938,0.169-1.343,0.508
		C149.951,12.295,149.649,12.806,149.451,13.486z"/>
	<path fill="#FFFFFF" d="M158.248,20.051l0.07-1.079c0.237,0.067,0.468,0.102,0.692,0.102c0.232,0,0.421-0.053,0.564-0.157
		c0.187-0.142,0.39-0.402,0.609-0.787l0.368-0.66l-1.124-6.762h1.13l0.508,3.409c0.102,0.673,0.188,1.347,0.26,2.019l3.016-5.428
		h1.199l-4.297,7.637c-0.415,0.744-0.783,1.238-1.104,1.479c-0.321,0.241-0.692,0.362-1.111,0.362
		C158.763,20.185,158.502,20.14,158.248,20.051z"/>
	<path fill="#FFFFFF" d="M165.384,14.89c0-1.315,0.387-2.405,1.161-3.269c0.64-0.712,1.478-1.066,2.515-1.066
		c0.813,0,1.467,0.254,1.964,0.762c0.498,0.508,0.746,1.193,0.746,2.057c0,0.774-0.157,1.495-0.47,2.161
		c-0.313,0.667-0.76,1.179-1.337,1.533s-1.186,0.533-1.824,0.533c-0.525,0-1.002-0.112-1.433-0.336
		c-0.429-0.226-0.757-0.542-0.982-0.953C165.496,15.9,165.384,15.428,165.384,14.89z M166.532,14.775
		c0,0.635,0.152,1.115,0.457,1.443s0.692,0.492,1.162,0.492c0.246,0,0.489-0.051,0.73-0.149c0.24-0.099,0.465-0.251,0.673-0.454
		s0.384-0.436,0.529-0.693c0.146-0.262,0.265-0.541,0.354-0.842c0.131-0.42,0.197-0.82,0.197-1.207c0-0.609-0.153-1.082-0.46-1.418
		c-0.308-0.337-0.693-0.505-1.158-0.505c-0.36,0-0.688,0.086-0.984,0.257c-0.296,0.172-0.563,0.422-0.803,0.752
		s-0.415,0.715-0.526,1.152C166.588,14.043,166.532,14.433,166.532,14.775z"/>
	<path fill="#FFFFFF" d="M177.013,16.229c-0.81,0.914-1.637,1.371-2.482,1.371c-0.521,0-0.939-0.149-1.26-0.447
		c-0.32-0.299-0.479-0.664-0.479-1.096c0-0.283,0.072-0.771,0.217-1.459l0.813-3.892h1.149l-0.901,4.31
		c-0.076,0.36-0.114,0.64-0.114,0.838c0,0.254,0.077,0.452,0.232,0.594c0.154,0.142,0.382,0.214,0.682,0.214
		c0.322,0,0.637-0.078,0.943-0.234c0.307-0.157,0.571-0.369,0.793-0.635c0.223-0.269,0.403-0.582,0.543-0.946
		c0.094-0.232,0.201-0.642,0.324-1.226l0.608-2.914h1.148l-1.409,6.741h-1.06L177.013,16.229z"/>
	<path fill="#FFFFFF" d="M183.455,14.89c0-1.315,0.389-2.405,1.161-3.269c0.641-0.712,1.479-1.066,2.515-1.066
		c0.813,0,1.468,0.254,1.965,0.762c0.498,0.508,0.746,1.193,0.746,2.057c0,0.774-0.156,1.495-0.471,2.161
		c-0.313,0.667-0.759,1.179-1.336,1.533c-0.578,0.354-1.187,0.533-1.825,0.533c-0.524,0-1.002-0.112-1.432-0.336
		c-0.43-0.226-0.758-0.542-0.983-0.953C183.568,15.9,183.455,15.428,183.455,14.89z M184.604,14.775
		c0,0.635,0.152,1.115,0.457,1.443s0.69,0.492,1.161,0.492c0.245,0,0.488-0.051,0.729-0.149c0.242-0.101,0.466-0.251,0.674-0.454
		c0.207-0.203,0.385-0.436,0.529-0.693c0.146-0.262,0.264-0.541,0.354-0.842c0.132-0.42,0.195-0.82,0.195-1.207
		c0-0.609-0.151-1.082-0.46-1.418c-0.307-0.337-0.691-0.505-1.158-0.505c-0.359,0-0.688,0.086-0.982,0.257
		c-0.297,0.172-0.564,0.422-0.804,0.752c-0.24,0.33-0.415,0.715-0.526,1.152C184.66,14.043,184.604,14.433,184.604,14.775z"/>
	<path fill="#FFFFFF" d="M190.481,17.447l1.41-6.74h1.041l-0.248,1.174c0.453-0.461,0.876-0.797,1.27-1.01
		c0.395-0.212,0.795-0.316,1.206-0.316c0.546,0,0.975,0.148,1.286,0.443c0.312,0.297,0.466,0.691,0.466,1.188
		c0,0.249-0.056,0.644-0.165,1.18l-0.856,4.082h-1.148l0.896-4.271c0.09-0.415,0.134-0.723,0.134-0.922
		c0-0.225-0.077-0.405-0.231-0.545c-0.153-0.141-0.378-0.209-0.67-0.209c-0.588,0-1.11,0.211-1.569,0.635
		c-0.46,0.423-0.798,1.147-1.015,2.177l-0.652,3.136h-1.152V17.447z"/>
	<path fill="#FFFFFF" d="M201.317,17.447l1.408-6.74h1.148l-0.234,1.109c0.428-0.479,0.81-0.809,1.146-0.99s0.701-0.271,1.096-0.271
		c0.419,0,0.77,0.111,1.051,0.333c0.28,0.223,0.466,0.532,0.556,0.93c0.342-0.423,0.703-0.739,1.082-0.948
		c0.379-0.21,0.777-0.313,1.196-0.313c0.563,0,0.984,0.134,1.267,0.399c0.281,0.268,0.422,0.642,0.422,1.123
		c0,0.207-0.049,0.551-0.146,1.028l-0.907,4.342h-1.149l0.929-4.456c0.08-0.363,0.12-0.624,0.12-0.779
		c0-0.222-0.069-0.396-0.21-0.521c-0.14-0.127-0.337-0.189-0.591-0.189c-0.343,0-0.69,0.104-1.047,0.312
		c-0.355,0.207-0.632,0.479-0.829,0.815c-0.195,0.336-0.369,0.854-0.517,1.552l-0.687,3.27h-1.148l0.952-4.551
		c0.066-0.31,0.102-0.528,0.102-0.66c0-0.221-0.067-0.397-0.206-0.532c-0.138-0.137-0.315-0.203-0.536-0.203
		c-0.325,0-0.668,0.104-1.024,0.311c-0.357,0.207-0.648,0.496-0.873,0.866c-0.226,0.37-0.408,0.897-0.553,1.584l-0.666,3.187h-1.15
		V17.447z"/>
	<path fill="#FFFFFF" d="M211.722,20.051l0.069-1.079c0.236,0.067,0.468,0.102,0.691,0.102c0.232,0,0.421-0.053,0.564-0.157
		c0.187-0.142,0.39-0.402,0.608-0.787l0.369-0.66l-1.124-6.762h1.13l0.508,3.409c0.103,0.673,0.188,1.347,0.261,2.019l3.016-5.428
		h1.199l-4.297,7.637c-0.415,0.744-0.783,1.238-1.104,1.479c-0.321,0.241-0.692,0.362-1.11,0.362
		C212.235,20.185,211.975,20.14,211.722,20.051z"/>
	<path fill="#FFFFFF" d="M226.809,16.609c-0.397,0.344-0.781,0.594-1.148,0.752c-0.369,0.159-0.762,0.238-1.182,0.238
		c-0.621,0-1.123-0.184-1.504-0.549c-0.381-0.366-0.571-0.836-0.571-1.406c0-0.377,0.086-0.71,0.257-1
		c0.172-0.29,0.399-0.521,0.684-0.698c0.283-0.176,0.631-0.302,1.041-0.378c0.258-0.051,0.748-0.091,1.47-0.12
		c0.722-0.028,1.238-0.104,1.552-0.229c0.089-0.313,0.134-0.572,0.134-0.779c0-0.268-0.098-0.477-0.293-0.629
		c-0.266-0.212-0.654-0.317-1.168-0.317c-0.481,0-0.877,0.106-1.184,0.32s-0.529,0.519-0.67,0.911l-1.161-0.102
		c0.237-0.67,0.612-1.182,1.127-1.537c0.514-0.354,1.162-0.533,1.945-0.533c0.834,0,1.494,0.199,1.979,0.598
		c0.372,0.296,0.56,0.682,0.56,1.155c0,0.358-0.054,0.776-0.159,1.251l-0.374,1.676c-0.118,0.533-0.178,0.967-0.178,1.301
		c0,0.213,0.047,0.518,0.14,0.914h-1.162C226.881,17.229,226.835,16.948,226.809,16.609z M227.235,14.032
		c-0.161,0.063-0.334,0.112-0.518,0.146c-0.186,0.035-0.492,0.07-0.925,0.109c-0.669,0.06-1.141,0.135-1.416,0.226
		c-0.273,0.091-0.481,0.235-0.62,0.435c-0.142,0.199-0.211,0.419-0.211,0.66c0,0.32,0.111,0.586,0.333,0.794
		c0.224,0.207,0.539,0.312,0.949,0.312c0.381,0,0.747-0.102,1.099-0.303s0.629-0.48,0.832-0.841
		C226.961,15.209,227.12,14.696,227.235,14.032z"/>
	<path fill="#FFFFFF" d="M229.495,17.447l1.409-6.74h1.016l-0.285,1.377c0.348-0.521,0.688-0.906,1.02-1.156
		c0.332-0.248,0.672-0.373,1.02-0.373c0.229,0,0.51,0.083,0.845,0.246l-0.471,1.066c-0.198-0.144-0.416-0.215-0.653-0.215
		c-0.402,0-0.814,0.225-1.237,0.672c-0.424,0.449-0.756,1.256-0.997,2.419l-0.57,2.704H229.495z"/>
	<path fill="#FFFFFF" d="M236.51,16.515l-0.191,0.938c-0.274,0.072-0.541,0.108-0.799,0.108c-0.457,0-0.821-0.112-1.092-0.337
		c-0.203-0.169-0.306-0.399-0.306-0.691c0-0.148,0.056-0.488,0.164-1.021l0.819-3.917h-0.907l0.185-0.889h0.907l0.35-1.658
		l1.313-0.793l-0.514,2.451h1.13l-0.19,0.889h-1.122l-0.781,3.726c-0.099,0.476-0.146,0.759-0.146,0.853
		c0,0.135,0.04,0.238,0.118,0.311c0.078,0.073,0.206,0.107,0.384,0.107C236.083,16.59,236.309,16.565,236.51,16.515z"/>
	<path fill="#FFFFFF" d="M237.391,17.447l1.41-6.74h1.147l-1.409,6.74H237.391z M239.066,9.443l0.273-1.302h1.143l-0.273,1.302
		H239.066z"/>
	<path fill="#FFFFFF" d="M240.431,15.144l1.148-0.069c0,0.33,0.052,0.611,0.152,0.846c0.102,0.231,0.289,0.422,0.562,0.569
		c0.273,0.148,0.593,0.224,0.955,0.224c0.509,0,0.89-0.103,1.144-0.306c0.254-0.202,0.381-0.442,0.381-0.717
		c0-0.199-0.076-0.388-0.229-0.565c-0.155-0.178-0.537-0.396-1.146-0.656c-0.607-0.26-0.995-0.443-1.165-0.549
		c-0.283-0.174-0.497-0.379-0.641-0.612c-0.145-0.235-0.217-0.505-0.217-0.81c0-0.533,0.212-0.99,0.636-1.371
		c0.423-0.381,1.016-0.571,1.776-0.571c0.848,0,1.49,0.194,1.934,0.587c0.442,0.392,0.672,0.906,0.688,1.546l-1.124,0.076
		c-0.017-0.406-0.161-0.728-0.432-0.966c-0.271-0.236-0.653-0.354-1.149-0.354c-0.396,0-0.706,0.091-0.926,0.272
		c-0.221,0.183-0.33,0.379-0.33,0.591s0.095,0.397,0.285,0.559c0.127,0.11,0.455,0.279,0.984,0.509
		c0.88,0.381,1.434,0.682,1.661,0.9c0.364,0.352,0.548,0.777,0.548,1.282c0,0.334-0.104,0.661-0.31,0.983
		c-0.205,0.321-0.519,0.578-0.938,0.771s-0.917,0.289-1.488,0.289c-0.778,0-1.441-0.192-1.986-0.578
		C240.659,16.638,240.401,16.012,240.431,15.144z"/>
	<path fill="#FFFFFF" d="M249.51,16.515l-0.191,0.938c-0.274,0.072-0.541,0.108-0.799,0.108c-0.457,0-0.821-0.112-1.092-0.337
		c-0.203-0.169-0.306-0.399-0.306-0.691c0-0.148,0.056-0.488,0.164-1.021l0.819-3.917h-0.907l0.185-0.889h0.907l0.35-1.658
		l1.313-0.793l-0.514,2.451h1.13l-0.19,0.889h-1.122l-0.781,3.726c-0.099,0.476-0.146,0.759-0.146,0.853
		c0,0.135,0.04,0.238,0.118,0.311c0.078,0.073,0.206,0.107,0.384,0.107C249.083,16.59,249.309,16.565,249.51,16.515z"/>
	<path fill="#FFFFFF" d="M250.391,17.447l1.41-6.74h1.147l-1.409,6.74H250.391z M252.066,9.443l0.273-1.302h1.143l-0.273,1.302
		H252.066z"/>
	<path fill="#FFFFFF" d="M257.975,14.99l1.148,0.121c-0.288,0.842-0.696,1.469-1.229,1.876c-0.532,0.408-1.135,0.612-1.813,0.612
		c-0.731,0-1.325-0.237-1.78-0.711c-0.455-0.475-0.683-1.137-0.683-1.986c0-0.736,0.146-1.461,0.438-2.172s0.71-1.251,1.254-1.621
		s1.164-0.557,1.863-0.557c0.723,0,1.297,0.205,1.72,0.613c0.423,0.407,0.635,0.948,0.635,1.621l-1.13,0.076
		c-0.004-0.428-0.128-0.762-0.371-1.003s-0.563-0.36-0.962-0.36c-0.461,0-0.861,0.146-1.2,0.438
		c-0.338,0.292-0.604,0.734-0.796,1.33c-0.192,0.595-0.289,1.167-0.289,1.717c0,0.575,0.127,1.007,0.381,1.295
		s0.567,0.432,0.939,0.432s0.729-0.142,1.068-0.426C257.514,16.002,257.781,15.57,257.975,14.99z"/>
	<path fill="#FFFFFF" d="M261.43,19.981l0.203-0.979c0.263,0.072,0.494,0.108,0.697,0.108c0.245,0,0.441-0.081,0.587-0.244
		c0.146-0.163,0.299-0.614,0.454-1.354l1.415-6.805h1.149l-1.46,7.015c-0.183,0.875-0.393,1.473-0.629,1.788
		c-0.316,0.425-0.759,0.636-1.326,0.636C262.221,20.146,261.857,20.09,261.43,19.981z M265.066,9.443l0.273-1.302h1.137
		l-0.273,1.302H265.066z"/>
	<path fill="#FFFFFF" d="M266.526,14.89c0-1.315,0.387-2.405,1.162-3.269c0.639-0.712,1.477-1.066,2.514-1.066
		c0.813,0,1.467,0.254,1.964,0.762s0.746,1.193,0.746,2.057c0,0.774-0.155,1.495-0.47,2.161c-0.313,0.667-0.759,1.179-1.336,1.533
		c-0.578,0.354-1.188,0.533-1.825,0.533c-0.523,0-1.002-0.112-1.432-0.336c-0.431-0.226-0.757-0.542-0.983-0.953
		C266.64,15.9,266.526,15.428,266.526,14.89z M267.676,14.775c0,0.635,0.151,1.115,0.457,1.443c0.305,0.328,0.691,0.492,1.161,0.492
		c0.245,0,0.488-0.051,0.73-0.149c0.24-0.101,0.465-0.251,0.672-0.454c0.208-0.203,0.385-0.436,0.53-0.693
		c0.146-0.262,0.264-0.541,0.353-0.842c0.131-0.42,0.197-0.82,0.197-1.207c0-0.609-0.154-1.082-0.461-1.418
		c-0.307-0.337-0.692-0.505-1.158-0.505c-0.358,0-0.688,0.086-0.983,0.257c-0.297,0.172-0.563,0.422-0.804,0.752
		s-0.414,0.715-0.525,1.152C267.731,14.043,267.676,14.433,267.676,14.775z"/>
	<path fill="#FFFFFF" d="M278.155,16.229c-0.808,0.914-1.635,1.371-2.48,1.371c-0.521,0-0.94-0.149-1.261-0.447
		c-0.318-0.299-0.479-0.664-0.479-1.096c0-0.283,0.072-0.771,0.216-1.459l0.813-3.892h1.148l-0.902,4.31
		c-0.075,0.36-0.112,0.64-0.112,0.838c0,0.254,0.077,0.452,0.23,0.594c0.154,0.142,0.382,0.214,0.684,0.214
		c0.32,0,0.636-0.078,0.941-0.234c0.308-0.157,0.571-0.369,0.793-0.635c0.224-0.269,0.403-0.582,0.543-0.946
		c0.094-0.232,0.201-0.642,0.323-1.226l0.609-2.914h1.148l-1.409,6.741h-1.061L278.155,16.229z"/>
	<path fill="#FFFFFF" d="M280.784,17.447l1.409-6.74h1.016l-0.285,1.377c0.348-0.521,0.688-0.906,1.02-1.156
		c0.332-0.248,0.672-0.373,1.019-0.373c0.229,0,0.511,0.083,0.846,0.246l-0.472,1.066c-0.197-0.144-0.416-0.215-0.652-0.215
		c-0.402,0-0.814,0.225-1.237,0.672c-0.424,0.449-0.756,1.256-0.997,2.419l-0.571,2.704H280.784z"/>
	<path fill="#FFFFFF" d="M285.112,17.447l1.409-6.74h1.041l-0.247,1.174c0.452-0.461,0.875-0.797,1.27-1.01
		c0.394-0.212,0.795-0.316,1.205-0.316c0.547,0,0.976,0.148,1.286,0.443c0.312,0.297,0.466,0.691,0.466,1.188
		c0,0.249-0.055,0.644-0.164,1.18l-0.856,4.082h-1.148l0.896-4.271c0.089-0.415,0.133-0.723,0.133-0.922
		c0-0.225-0.077-0.405-0.231-0.545c-0.153-0.141-0.378-0.209-0.669-0.209c-0.589,0-1.111,0.211-1.57,0.635
		c-0.459,0.423-0.797,1.147-1.014,2.177l-0.653,3.136h-1.151V17.447z"/>
	<path fill="#FFFFFF" d="M297.294,15.156l1.117,0.113c-0.161,0.555-0.529,1.082-1.106,1.581c-0.578,0.499-1.268,0.749-2.066,0.749
		c-0.499,0-0.957-0.115-1.374-0.346c-0.417-0.231-0.733-0.566-0.952-1.006c-0.218-0.44-0.327-0.942-0.327-1.506
		c0-0.736,0.171-1.449,0.512-2.143c0.341-0.691,0.781-1.206,1.323-1.542c0.541-0.337,1.128-0.505,1.759-0.505
		c0.804,0,1.445,0.25,1.927,0.748c0.48,0.5,0.72,1.182,0.72,2.045c0,0.33-0.028,0.669-0.088,1.016h-4.965
		c-0.017,0.131-0.025,0.25-0.025,0.355c0,0.631,0.146,1.111,0.437,1.443s0.645,0.498,1.063,0.498c0.396,0,0.781-0.129,1.162-0.387
		C296.786,16.016,297.082,15.644,297.294,15.156z M293.955,13.486h3.783c0.004-0.118,0.007-0.203,0.007-0.254
		c0-0.575-0.145-1.018-0.432-1.323c-0.288-0.307-0.658-0.46-1.111-0.46c-0.491,0-0.938,0.169-1.343,0.508
		C294.455,12.295,294.154,12.806,293.955,13.486z"/>
	<path fill="#FFFFFF" d="M299.141,20.051l0.069-1.079c0.236,0.067,0.468,0.102,0.691,0.102c0.232,0,0.421-0.053,0.564-0.157
		c0.187-0.142,0.39-0.402,0.608-0.787l0.369-0.66l-1.124-6.762h1.13l0.508,3.409c0.103,0.673,0.188,1.347,0.261,2.019l3.016-5.428
		h1.199l-4.297,7.637c-0.415,0.744-0.783,1.238-1.104,1.479c-0.321,0.241-0.691,0.362-1.109,0.362
		C299.655,20.185,299.395,20.14,299.141,20.051z"/>
</g>
</svg>
