<?xml version="1.0" encoding="utf-8"?>
<!-- Generator: Adobe Illustrator 16.0.0, SVG Export Plug-In . SVG Version: 6.00 Build 0)  -->
<!DOCTYPE svg PUBLIC "-//W3C//DTD SVG 1.1//EN" "http://www.w3.org/Graphics/SVG/1.1/DTD/svg11.dtd">
<svg version="1.1" id="圖層_1" xmlns="http://www.w3.org/2000/svg" xmlns:xlink="http://www.w3.org/1999/xlink" x="0px" y="0px"
	 width="224px" height="14px" viewBox="0 0 224 14" enable-background="new 0 0 224 14" xml:space="preserve">
<g enable-background="new    ">
	<path fill="#948DBC" d="M3.65,10.842c2.388,0.183,4.936,0.237,7.643,0.164c0.045,0,0.086,0.005,0.123,0.014
		c-0.019-0.757-0.064-1.909-0.137-3.459c-0.101-2.315-0.201-3.819-0.301-4.512C8.144,3.003,5.396,3.04,2.734,3.158
		c-0.055,4.32-0.132,6.94-0.232,7.861c-0.027,0.146-0.123,0.224-0.287,0.232c-0.191-0.027-0.283-0.132-0.273-0.314
		c0.073-0.511,0.15-3.181,0.232-8.012c0-0.173,0.082-0.269,0.246-0.287c3.172-0.137,6.07-0.178,8.695-0.123
		c0.219,0.009,0.346,0.109,0.383,0.301c0.109,0.52,0.223,2.015,0.342,4.484c0.073,1.759,0.118,2.876,0.137,3.35
		c0.009,0.446,0.009,0.725,0,0.834c-0.019,0.183-0.114,0.273-0.287,0.273c-0.155-0.009-0.242-0.091-0.26-0.246
		c-0.046,0.019-0.082,0.027-0.109,0.027c-1.832,0.055-3.441,0.06-4.826,0.014c-1.386-0.046-2.338-0.101-2.857-0.164
		c-0.191-0.019-0.292-0.109-0.301-0.273C3.345,10.915,3.45,10.823,3.65,10.842z M4.129,9.447l1.805,0.055
		c0.182,0.009,0.269,0.101,0.26,0.273c-0.009,0.173-0.105,0.265-0.287,0.273L4.102,9.994C3.938,9.967,3.855,9.876,3.855,9.721
		C3.855,9.538,3.946,9.447,4.129,9.447z M6.207,6.822C6.28,7.104,6.316,7.565,6.316,8.203C6.298,8.431,6.18,8.554,5.961,8.572
		C5.286,8.6,4.73,8.581,4.293,8.518c-0.219-0.046-0.314-0.183-0.287-0.41C3.997,7.497,3.983,7.041,3.965,6.74
		c0-0.183,0.082-0.273,0.246-0.273c0.082,0,0.15,0.022,0.205,0.068C5.081,6.526,5.505,6.53,5.688,6.549
		C5.97,6.567,6.143,6.658,6.207,6.822z M9.898,9.051c0.055,0.019,0.096-0.087,0.123-0.314c0.055-0.146,0.155-0.214,0.301-0.205
		c0.164,0.027,0.241,0.137,0.232,0.328c-0.009,0.2-0.06,0.374-0.15,0.52c-0.091,0.146-0.224,0.219-0.396,0.219
		c-0.465,0-0.935-0.41-1.408-1.23C8.399,8.55,8.221,8.69,8.066,8.791C7.811,8.946,7.62,9.032,7.492,9.051
		c-0.173,0-0.283-0.063-0.328-0.191C7.137,8.687,7.205,8.577,7.369,8.531c0.027-0.009,0.055-0.019,0.082-0.027
		c0.301-0.101,0.592-0.306,0.875-0.615C8.226,7.67,8.125,7.446,8.025,7.219C7.733,6.535,7.51,5.911,7.355,5.346
		C6.353,5.337,5.391,5.3,4.471,5.236C4.379,5.228,4.302,5.218,4.238,5.209C4.11,5.163,4.051,5.063,4.061,4.908
		c0.018-0.173,0.118-0.251,0.301-0.232C4.899,4.722,5.76,4.758,6.945,4.785h0.246c-0.046-0.21-0.082-0.41-0.109-0.602
		C7.063,4.001,7.15,3.896,7.342,3.869c0.155,0,0.25,0.077,0.287,0.232c0.036,0.237,0.086,0.47,0.15,0.697
		c0.328,0.009,0.615,0.009,0.861,0c0.182,0,0.273,0.091,0.273,0.273c0,0.164-0.091,0.255-0.273,0.273
		c-0.164,0-0.333,0.005-0.506,0.014H7.93c0.146,0.483,0.328,0.998,0.547,1.545c0.082,0.183,0.159,0.355,0.232,0.52
		C8.955,7.096,9.119,6.8,9.201,6.535c0.063-0.164,0.182-0.219,0.355-0.164c0.164,0.082,0.214,0.21,0.15,0.383
		C9.524,7.219,9.283,7.62,8.982,7.957c0.255,0.446,0.474,0.747,0.656,0.902C9.748,8.987,9.834,9.051,9.898,9.051z M4.512,7.055
		C4.521,7.301,4.525,7.593,4.525,7.93c0,0.063,0.027,0.096,0.082,0.096c0.228,0.027,0.606,0.041,1.135,0.041
		c0.036-0.009,0.05-0.036,0.041-0.082c0-0.237-0.023-0.52-0.068-0.848c-0.019-0.046-0.06-0.068-0.123-0.068
		C5.354,7.06,4.995,7.055,4.512,7.055z M9.939,4.525c0.027,0.183-0.06,0.292-0.26,0.328c-0.128,0-0.224-0.055-0.287-0.164
		L9.352,4.635C9.233,4.489,9.114,4.32,8.996,4.129C8.978,4.102,8.969,4.065,8.969,4.02c0.018-0.146,0.1-0.228,0.246-0.246
		c0.146-0.009,0.25,0.046,0.314,0.164c0.118,0.164,0.241,0.333,0.369,0.506C9.907,4.471,9.921,4.498,9.939,4.525z"/>
	<path fill="#948DBC" d="M21.424,4.594l2.42,0.068c0.191,0.009,0.282,0.104,0.273,0.287c-0.019,0.173-0.109,0.265-0.273,0.273
		l-5.783-0.164c-0.173-0.019-0.269-0.109-0.287-0.273c0-0.191,0.096-0.287,0.287-0.287L20.85,4.58
		c-0.064-0.301-0.119-0.738-0.164-1.313c0-0.191,0.091-0.292,0.273-0.301c0.164,0.009,0.255,0.087,0.273,0.232
		c0.045,0.547,0.104,0.976,0.178,1.285C21.41,4.53,21.415,4.566,21.424,4.594z M18.703,10.199l1.777,0.027l-0.807-1.695
		l-0.055-0.096c-0.027-0.228,0.073-0.347,0.301-0.355c0.118,0,0.205,0.055,0.26,0.164l0.861,1.777l0.041,0.096
		c0.009,0.046,0.014,0.087,0.014,0.123l0.848,0.014c0.009-0.046,0.018-0.077,0.027-0.096c0.127-0.219,0.228-0.429,0.301-0.629
		c0.109-0.273,0.191-0.565,0.246-0.875c0.027-0.164,0.132-0.241,0.314-0.232c0.173,0.019,0.255,0.123,0.246,0.314
		c-0.055,0.347-0.123,0.647-0.205,0.902s-0.173,0.46-0.273,0.615l1.244,0.014c0.191,0.009,0.282,0.104,0.273,0.287
		c-0.019,0.173-0.109,0.265-0.273,0.273l-5.141-0.068c-0.183-0.019-0.278-0.109-0.287-0.273
		C18.416,10.295,18.512,10.199,18.703,10.199z"/>
	<path fill="#948DBC" d="M37.352,4.922c-0.647,0.019-1.326,0.014-2.037-0.014l0.109,2.748c0,0.191-0.096,0.287-0.287,0.287
		c-0.164,0-0.255-0.087-0.273-0.26l-0.109-2.803h-0.191c-1.495-0.046-2.443-0.101-2.844-0.164c-0.155-0.046-0.224-0.155-0.205-0.328
		c0.027-0.128,0.109-0.196,0.246-0.205c0.055,0,0.118,0.005,0.191,0.014c0.465,0.046,1.362,0.096,2.693,0.15h0.082l-0.041-0.67
		c-0.009-0.183,0.082-0.278,0.273-0.287c0.182,0,0.278,0.087,0.287,0.26l0.027,0.711c0.838,0.019,1.531,0.019,2.078,0
		c0.191,0,0.287,0.096,0.287,0.287S37.543,4.931,37.352,4.922z M31.992,7.643c-0.183-0.009-0.273-0.104-0.273-0.287
		c0-0.101,0.05-0.183,0.15-0.246c0.182-0.101,0.378-0.241,0.588-0.424c0.228-0.228,0.383-0.424,0.465-0.588
		c0.055-0.118,0.141-0.178,0.26-0.178c0.2,0.019,0.296,0.123,0.287,0.314c-0.046,0.191-0.228,0.456-0.547,0.793
		c-0.31,0.319-0.565,0.515-0.766,0.588C32.102,7.634,32.047,7.643,31.992,7.643z M34.467,9.406
		c-0.365-0.027-0.684-0.068-0.957-0.123c-0.191-0.019-0.296-0.109-0.314-0.273c0-0.183,0.096-0.269,0.287-0.26
		c0.829,0.091,1.577,0.137,2.242,0.137h1.107c0.219,0.009,0.31,0.118,0.273,0.328c-0.064,0.246-0.228,0.656-0.492,1.23
		c0.756,0.456,1.135,0.897,1.135,1.326c0.009,0.319-0.05,0.561-0.178,0.725c-0.137,0.164-0.324,0.251-0.561,0.26
		c-0.265,0.019-0.497-0.041-0.697-0.178c-0.101-0.063-0.15-0.146-0.15-0.246c0-0.183,0.086-0.273,0.26-0.273
		c0.063,0,0.137,0.022,0.219,0.068c0.091,0.055,0.214,0.082,0.369,0.082c0.137-0.036,0.196-0.183,0.178-0.438
		c-0.027-0.219-0.183-0.429-0.465-0.629c-0.283-0.2-0.47-0.333-0.561-0.396c-0.109-0.082-0.169-0.155-0.178-0.219
		c0-0.082,0.018-0.146,0.055-0.191c0.118-0.219,0.25-0.524,0.396-0.916c-0.538,0.019-1.012,0.022-1.422,0.014
		c-0.237,1.468-0.898,2.461-1.982,2.98c-0.073,0.027-0.146,0.055-0.219,0.082c-0.064,0.036-0.146,0.055-0.246,0.055
		c-0.137-0.027-0.219-0.109-0.246-0.246c-0.009-0.128,0.045-0.219,0.164-0.273C33.633,11.585,34.293,10.71,34.467,9.406z
		 M35.807,1.668c0,0.073-0.046,0.146-0.137,0.219c-0.101,0.073-0.232,0.159-0.396,0.26c-0.894,0.547-1.668,0.815-2.324,0.807
		c-0.109-0.009-0.187-0.046-0.232-0.109c-0.037-0.036-0.055-0.091-0.055-0.164c0-0.183,0.091-0.273,0.273-0.273
		c0.766-0.027,1.581-0.351,2.447-0.971c0.045-0.027,0.096-0.041,0.15-0.041C35.725,1.403,35.815,1.495,35.807,1.668z M37.639,6.262
		c0.438,0.438,0.884,0.738,1.34,0.902c0.182,0.046,0.255,0.164,0.219,0.355c-0.046,0.146-0.155,0.205-0.328,0.178
		c-0.091-0.019-0.173-0.046-0.246-0.082c-0.547-0.228-0.984-0.542-1.313-0.943c-0.064-0.063-0.101-0.132-0.109-0.205
		c0-0.173,0.086-0.265,0.26-0.273C37.524,6.193,37.584,6.216,37.639,6.262z"/>
	<path fill="#948DBC" d="M44.734,9.324c-0.201,0.027-0.324-0.036-0.369-0.191c-0.027-0.128,0.032-0.237,0.178-0.328
		c0.292-0.155,0.602-0.442,0.93-0.861c0.273-0.337,0.479-0.711,0.615-1.121c0.009-0.046-0.005-0.068-0.041-0.068
		c-0.492-0.036-0.98-0.055-1.463-0.055c-0.228,0-0.347-0.082-0.355-0.246c0-0.183,0.114-0.273,0.342-0.273
		c1.039,0,1.672,0.032,1.9,0.096c0.164,0.055,0.232,0.183,0.205,0.383c-0.064,0.429-0.269,0.902-0.615,1.422
		C45.532,8.846,45.09,9.261,44.734,9.324z M48.645,10.65c0.036,0.027,0.055,0.009,0.055-0.055v-0.055
		c0-0.547-0.105-2.931-0.314-7.15c-0.027-0.21,0.063-0.319,0.273-0.328c0.164,0,0.26,0.082,0.287,0.246
		c0.219,4.175,0.328,6.554,0.328,7.137c0.018,0.301-0.019,0.506-0.109,0.615c-0.101,0.128-0.26,0.183-0.479,0.164
		c-0.265-0.019-0.41-0.118-0.438-0.301c-0.019-0.137,0.032-0.232,0.15-0.287C48.453,10.618,48.535,10.623,48.645,10.65z
		 M50.189,6.973c-0.073-0.146-0.046-0.273,0.082-0.383c0.118-0.055,0.232-0.032,0.342,0.068c0.246,0.273,0.515,0.533,0.807,0.779
		c0.191-0.183,0.415-0.429,0.67-0.738c0.173-0.21,0.346-0.46,0.52-0.752c0.055-0.101,0.137-0.15,0.246-0.15
		c0.191,0.009,0.282,0.109,0.273,0.301c-0.009,0.063-0.032,0.132-0.068,0.205c-0.109,0.228-0.306,0.506-0.588,0.834
		c-0.246,0.282-0.451,0.497-0.615,0.643c0.082,0.073,0.159,0.137,0.232,0.191c0.729,0.538,1.335,0.839,1.818,0.902
		c0.182,0.036,0.269,0.128,0.26,0.273c0,0.191-0.105,0.287-0.314,0.287c-0.574-0.073-1.267-0.41-2.078-1.012
		c-0.538-0.41-1.021-0.843-1.449-1.299C50.262,7.06,50.217,7.009,50.189,6.973z"/>
	<path fill="#948DBC" d="M66.131,11.826c-0.019-0.93-0.078-1.813-0.178-2.652c-1.03-0.046-2.748-0.077-5.154-0.096
		c-0.037,1.112-0.191,1.974-0.465,2.584c-0.037,0.118-0.123,0.187-0.26,0.205c-0.109-0.009-0.187-0.046-0.232-0.109
		c-0.055-0.082-0.068-0.178-0.041-0.287c0.292-0.665,0.438-1.54,0.438-2.625c0-0.2,0.114-0.296,0.342-0.287
		c2.798,0,4.671,0.036,5.619,0.109c0.155,0.027,0.255,0.128,0.301,0.301c0.082,0.547,0.141,1.54,0.178,2.98
		C66.668,12.25,66.522,12.4,66.24,12.4c-0.237-0.019-0.365-0.114-0.383-0.287C65.857,11.913,65.948,11.817,66.131,11.826z
		 M60.457,2.871c0.173,0.019,0.374,0.027,0.602,0.027c0.419,0.009,0.866,0.014,1.34,0.014c-0.064-0.091-0.123-0.183-0.178-0.273
		c-0.183-0.31-0.283-0.533-0.301-0.67c-0.009-0.046-0.014-0.073-0.014-0.082c0-0.173,0.096-0.265,0.287-0.273
		c0.109,0.009,0.187,0.063,0.232,0.164c0.173,0.492,0.383,0.848,0.629,1.066c0.027,0.027,0.045,0.046,0.055,0.055
		c0.483-0.009,1.007-0.027,1.572-0.055c0.2,0.019,0.296,0.104,0.287,0.26c0,0.164-0.091,0.255-0.273,0.273
		c-1.468,0.073-2.685,0.091-3.65,0.055c-0.319,0-0.593-0.022-0.82-0.068c-0.128-0.046-0.191-0.132-0.191-0.26
		C60.042,2.885,60.184,2.808,60.457,2.871z M63.848,5.045c0.027,0.21,0.05,0.487,0.068,0.834c0.018,0.347,0.018,0.556,0,0.629
		c-0.009,0.128-0.119,0.219-0.328,0.273c-0.492,0.063-1.171,0.073-2.037,0.027c-0.347-0.027-0.483-0.178-0.41-0.451
		c0.109-0.692,0.127-1.217,0.055-1.572c-0.019-0.2,0.073-0.301,0.273-0.301c0.137,0,0.223,0.06,0.26,0.178
		c0.574,0.009,1.135,0.027,1.682,0.055C63.638,4.735,63.784,4.845,63.848,5.045z M61.783,5.195
		c-0.009,0.273-0.037,0.615-0.082,1.025c-0.009,0.046,0.004,0.068,0.041,0.068c0.866,0.036,1.403,0.032,1.613-0.014
		c0.018-0.009,0.027-0.027,0.027-0.055c0-0.31-0.023-0.602-0.068-0.875c-0.009-0.055-0.041-0.087-0.096-0.096
		C62.772,5.231,62.293,5.214,61.783,5.195z M64.6,10.623c0.027,0.164,0.05,0.388,0.068,0.67c0.018,0.282,0.018,0.456,0,0.52
		c-0.009,0.137-0.119,0.228-0.328,0.273c-0.447,0.063-1.066,0.073-1.859,0.027c-0.347-0.027-0.483-0.178-0.41-0.451
		c0.109-0.574,0.132-1.007,0.068-1.299c-0.027-0.2,0.059-0.301,0.26-0.301c0.127,0,0.214,0.06,0.26,0.178
		c0.52,0.009,1.021,0.027,1.504,0.055C64.39,10.313,64.536,10.423,64.6,10.623z M62.699,10.773c-0.009,0.21-0.032,0.46-0.068,0.752
		c-0.009,0.046,0.004,0.068,0.041,0.068c0.774,0.036,1.253,0.032,1.436-0.014c0.018-0.009,0.027-0.027,0.027-0.055
		c0-0.21-0.023-0.41-0.068-0.602c-0.009-0.055-0.041-0.087-0.096-0.096C63.579,10.81,63.155,10.792,62.699,10.773z"/>
	<path fill="#948DBC" d="M74.813,4.717c0.565,0.101,1.477,0.178,2.734,0.232c0.72,0.046,1.317,0.055,1.791,0.027
		c0.182,0,0.273,0.091,0.273,0.273c0,0.155-0.091,0.241-0.273,0.26c-0.173,0-0.351,0.005-0.533,0.014
		c-0.474,0-0.93-0.014-1.367-0.041l0.096,3.008c1.112-0.009,1.941-0.041,2.488-0.096c0.209-0.036,0.323,0.041,0.342,0.232
		c0,0.146-0.082,0.237-0.246,0.273c-0.638,0.073-1.586,0.109-2.844,0.109c-1.732,0-2.867-0.082-3.404-0.246
		C73.75,8.7,73.7,8.608,73.719,8.49c0.036-0.146,0.127-0.214,0.273-0.205c0.109,0.009,0.205,0.022,0.287,0.041
		c0.182,0.027,0.369,0.05,0.561,0.068c0.638,0.055,1.349,0.087,2.133,0.096l-0.109-3.035c-0.656-0.036-1.299-0.091-1.928-0.164
		c-0.091-0.009-0.173-0.027-0.246-0.055c-0.128-0.046-0.187-0.146-0.178-0.301C74.53,4.771,74.63,4.698,74.813,4.717z"/>
	<path fill="#948DBC" d="M93.912,4.799c0.018-0.063,0.05-0.128,0.096-0.191c0.383-0.556,0.597-1.181,0.643-1.873
		c0.018-0.183,0.114-0.273,0.287-0.273c0.173,0.009,0.264,0.101,0.273,0.273v0.041c0.82,0,1.567,0.005,2.242,0.014L97.371,1.9
		c-0.027-0.2,0.073-0.314,0.301-0.342c0.146,0.009,0.237,0.096,0.273,0.26l0.096,0.984c1.613,0.027,2.816,0.077,3.609,0.15
		c0.209,0.019,0.314,0.128,0.314,0.328c-0.027,0.501-0.091,0.971-0.191,1.408c-0.037,0.173-0.142,0.26-0.314,0.26
		c-0.219-0.027-0.31-0.142-0.273-0.342c0.063-0.292,0.123-0.675,0.178-1.148c-1.413-0.101-3.482-0.15-6.207-0.15
		c-0.101,0.629-0.292,1.135-0.574,1.518c-0.046,0.046-0.105,0.101-0.178,0.164c-0.064,0.073-0.146,0.104-0.246,0.096
		C93.985,5.059,93.903,4.963,93.912,4.799z M98.834,6.727c0.127-0.027,0.228-0.005,0.301,0.068c0.027,0.036,0.05,0.077,0.068,0.123
		c0.091,0.21,0.273,0.456,0.547,0.738c0.246,0.273,0.456,0.442,0.629,0.506c0.127,0.063,0.182,0.155,0.164,0.273
		c-0.037,0.173-0.132,0.255-0.287,0.246c-0.237,0-0.556-0.228-0.957-0.684c-0.037-0.036-0.064-0.068-0.082-0.096
		c-0.602,0.055-1.117,0.091-1.545,0.109c-0.465,0.027-0.775,0.036-0.93,0.027c-0.237-0.009-0.369-0.077-0.396-0.205
		c-0.019-0.082,0.022-0.173,0.123-0.273c0.173-0.191,0.396-0.487,0.67-0.889c0.2-0.328,0.346-0.593,0.438-0.793
		c-0.447-0.019-0.875-0.041-1.285-0.068c-0.073-0.009-0.137-0.019-0.191-0.027c-0.128-0.046-0.187-0.146-0.178-0.301
		C95.94,5.31,96.04,5.231,96.223,5.25c0.438,0.046,1.144,0.082,2.119,0.109c0.556,0.019,1.016,0.022,1.381,0.014
		c0.182,0,0.273,0.091,0.273,0.273c0,0.164-0.091,0.255-0.273,0.273c-0.137,0-0.278,0.005-0.424,0.014
		c-0.392,0-0.771-0.009-1.135-0.027c0,0.027-0.005,0.046-0.014,0.055c-0.073,0.2-0.214,0.47-0.424,0.807
		c-0.201,0.328-0.369,0.583-0.506,0.766c0.41-0.019,0.952-0.055,1.627-0.109c-0.064-0.082-0.109-0.164-0.137-0.246
		c-0.019-0.046-0.032-0.091-0.041-0.137C98.643,6.877,98.697,6.772,98.834,6.727z M96.688,10.158
		c0.264,0.027,0.665,0.055,1.203,0.082l-0.027-0.697c-0.009-0.183,0.082-0.278,0.273-0.287c0.182,0,0.278,0.087,0.287,0.26
		l0.027,0.738h0.055c0.474,0.019,0.87,0.022,1.189,0.014c0.182,0,0.273,0.091,0.273,0.273c0,0.155-0.091,0.241-0.273,0.26
		c-0.119,0-0.237,0.005-0.355,0.014c-0.292-0.009-0.579-0.022-0.861-0.041l0.041,1.135c0.556-0.009,1.162-0.032,1.818-0.068
		c0.2,0.019,0.301,0.104,0.301,0.26c0,0.164-0.096,0.255-0.287,0.273c-1.267,0.073-2.315,0.091-3.145,0.055
		c-0.319,0-0.593-0.022-0.82-0.068c-0.128-0.046-0.191-0.132-0.191-0.26c0.009-0.219,0.15-0.296,0.424-0.232
		c0.173,0.019,0.374,0.027,0.602,0.027c0.228,0.009,0.474,0.014,0.738,0.014l-0.055-1.148c-0.401-0.009-0.793-0.027-1.176-0.055
		c-0.064-0.009-0.119-0.019-0.164-0.027c-0.128-0.046-0.187-0.146-0.178-0.301C96.405,10.213,96.505,10.14,96.688,10.158z"/>
	<path fill="#948DBC" d="M115.295,9.939c0.063,0,0.132,0.009,0.205,0.027c-0.201-2.552-0.342-4.033-0.424-4.443
		c-0.311-0.027-1.126-0.046-2.447-0.055l1.6,2.215c0.027,0.046,0.041,0.096,0.041,0.15c0,0.183-0.101,0.273-0.301,0.273
		c-0.101-0.009-0.174-0.055-0.219-0.137l-1.299-1.791c-0.137,0.237-0.337,0.506-0.602,0.807c-0.392,0.401-0.688,0.597-0.889,0.588
		c-0.183-0.009-0.283-0.091-0.301-0.246c0-0.128,0.063-0.219,0.191-0.273c0.51-0.31,0.907-0.761,1.189-1.354
		c0.009-0.019,0.018-0.032,0.027-0.041l-0.137-0.205c-0.921-0.019-2.023-0.032-3.309-0.041c0.009,0.72,0.014,1.509,0.014,2.365
		c0,1.048-0.032,1.764-0.096,2.146c-0.019,0.164-0.101,0.251-0.246,0.26c-0.101,0-0.178-0.032-0.232-0.096
		c-0.064-0.073-0.082-0.169-0.055-0.287c0.1-0.483,0.118-2.028,0.055-4.635c-0.009-0.173,0.086-0.26,0.287-0.26
		c1.23,0,2.297,0.005,3.199,0.014l-1.053-1.436c-0.027-0.046-0.041-0.091-0.041-0.137c0-0.191,0.096-0.287,0.287-0.287
		c0.109,0,0.187,0.046,0.232,0.137l1.258,1.723c1.75,0.036,2.779,0.077,3.09,0.123c0.154,0.019,0.246,0.091,0.273,0.219
		c0.109,0.347,0.264,1.914,0.465,4.703c0.027,0.319-0.16,0.479-0.561,0.479c-0.256-0.009-0.393-0.096-0.41-0.26
		C115.08,10.03,115.148,9.948,115.295,9.939z"/>
	<path fill="#948DBC" d="M122.336,4.361c0.009-0.046,0.027-0.091,0.055-0.137c0.236-0.446,0.373-0.952,0.41-1.518
		c0.009-0.183,0.096-0.273,0.26-0.273c0.173,0.009,0.264,0.091,0.273,0.246c0.783,0,1.494,0.005,2.133,0.014l-0.096-1.025
		c-0.01-0.183,0.082-0.278,0.273-0.287c0.182,0,0.277,0.087,0.287,0.26l0.096,1.066c1.431,0.027,2.497,0.077,3.199,0.15
		c0.209,0.019,0.314,0.128,0.314,0.328c-0.027,0.446-0.092,0.866-0.191,1.258c-0.037,0.173-0.137,0.255-0.301,0.246
		c-0.219-0.027-0.311-0.137-0.273-0.328c0.063-0.255,0.123-0.588,0.178-0.998c-1.295-0.109-3.182-0.164-5.66-0.164
		c-0.064,0.511-0.188,0.921-0.369,1.23c-0.027,0.036-0.064,0.082-0.109,0.137c-0.064,0.063-0.142,0.091-0.232,0.082
		C122.408,4.621,122.326,4.525,122.336,4.361z M125.248,4.949c-0.092,0.438-0.342,0.911-0.752,1.422
		c-0.237,0.282-0.438,0.419-0.602,0.41c-0.174-0.009-0.27-0.101-0.287-0.273c0.009-0.101,0.05-0.173,0.123-0.219
		c0.438-0.319,0.77-0.812,0.998-1.477c0.063-0.118,0.146-0.178,0.246-0.178C125.184,4.653,125.275,4.758,125.248,4.949z
		 M124.77,9.283c0.392,0.055,1.012,0.101,1.859,0.137c0.492,0.027,0.902,0.032,1.23,0.014c0.182,0,0.273,0.091,0.273,0.273
		c0,0.155-0.092,0.241-0.273,0.26c-0.119,0-0.242,0.005-0.369,0.014c-0.301-0.009-0.588-0.019-0.861-0.027
		c-0.01,0.565-0.019,1.08-0.027,1.545c0.656-0.009,1.226-0.032,1.709-0.068c0.2-0.009,0.301,0.082,0.301,0.273
		c0,0.146-0.082,0.237-0.246,0.273c-0.502,0.046-1.189,0.063-2.064,0.055c-0.994,0-1.705-0.036-2.133-0.109
		c-0.128-0.036-0.191-0.123-0.191-0.26c0-0.082,0.027-0.15,0.082-0.205c0.055-0.063,0.137-0.082,0.246-0.055
		c0.383,0.046,0.952,0.077,1.709,0.096l0.055-1.572c-0.429-0.019-0.848-0.05-1.258-0.096c-0.064,0-0.119-0.009-0.164-0.027
		c-0.128-0.046-0.188-0.146-0.178-0.301C124.486,9.338,124.587,9.265,124.77,9.283z M127.258,5.113
		c-0.164,0.52-0.256,0.839-0.273,0.957c0,0.118,0.059,0.2,0.178,0.246c0.291,0.091,0.752,0.142,1.381,0.15
		c0.173,0.009,0.26,0.096,0.26,0.26s-0.087,0.255-0.26,0.273c-0.82,0.009-1.427-0.082-1.818-0.273
		c-0.219-0.137-0.319-0.314-0.301-0.533c0-0.164,0.096-0.552,0.287-1.162c0.036-0.146,0.137-0.219,0.301-0.219
		C127.193,4.84,127.275,4.94,127.258,5.113z"/>
	<path fill="#948DBC" d="M137.826,2.898c0.164,0,0.255,0.091,0.273,0.273c0.027,0.164,0.05,0.583,0.068,1.258
		c0.018,0.675,0.022,1.103,0.014,1.285c-0.01,0.155-0.092,0.241-0.246,0.26c-0.647,0.046-1.281,0.032-1.9-0.041
		c-0.019,0.155-0.037,0.301-0.055,0.438c-0.146,1.148-0.306,1.909-0.479,2.283c-0.037,0.137-0.123,0.21-0.26,0.219
		c-0.101,0-0.174-0.032-0.219-0.096c-0.055-0.063-0.073-0.15-0.055-0.26c0.146-0.337,0.296-1.075,0.451-2.215
		c0.1-1.185,0.15-2.22,0.15-3.104c-0.01-0.101,0.014-0.187,0.068-0.26c0.045-0.063,0.118-0.091,0.219-0.082
		C136.295,2.876,136.951,2.89,137.826,2.898z M136.076,5.414h0.068c0.492,0.046,0.988,0.063,1.49,0.055
		c0-0.255-0.005-0.501-0.014-0.738l-1.49-0.068C136.121,4.917,136.104,5.168,136.076,5.414z M136.145,4.129l1.463,0.055
		c-0.01-0.255-0.023-0.506-0.041-0.752c-0.557-0.009-1.035-0.019-1.436-0.027C136.148,3.642,136.153,3.883,136.145,4.129z
		 M141.367,9.256c0.036,0.355,0.063,0.834,0.082,1.436c0.018,0.602,0.018,0.966,0,1.094c-0.01,0.137-0.123,0.228-0.342,0.273
		c-0.456,0.063-1.085,0.073-1.887,0.027c-0.355-0.027-0.497-0.178-0.424-0.451c0.109-1.121,0.127-1.969,0.055-2.543
		c-0.019-0.21,0.077-0.314,0.287-0.314c0.1,0,0.168,0.027,0.205,0.082c0.537,0.009,1.062,0.027,1.572,0.055
		C141.152,8.933,141.303,9.046,141.367,9.256z M139.412,10.732c-0.01,0.237-0.023,0.492-0.041,0.766
		c-0.01,0.046,0.004,0.068,0.041,0.068c0.783,0.036,1.267,0.032,1.449-0.014c0.027-0.009,0.041-0.027,0.041-0.055
		c0-0.255-0.005-0.501-0.014-0.738L139.412,10.732z M140.861,10.227c0-0.237-0.01-0.46-0.027-0.67
		c-0.01-0.055-0.041-0.087-0.096-0.096c-0.401-0.019-0.834-0.036-1.299-0.055c0.009,0.228,0.009,0.487,0,0.779L140.861,10.227z
		 M143.951,2.734c0.191,0.019,0.31,0.109,0.355,0.273c0.072,0.374,0.159,1.299,0.26,2.775c0.1,1.477,0.146,2.579,0.137,3.309
		c0,0.319-0.174,0.479-0.52,0.479c-0.128,0.009-0.237-0.014-0.328-0.068c-0.073-0.046-0.109-0.118-0.109-0.219
		c0-0.183,0.086-0.273,0.26-0.273c0.055,0,0.1,0.014,0.137,0.041c0-0.501-0.032-1.331-0.096-2.488
		c-0.019-0.246-0.032-0.492-0.041-0.738c-1.167-0.027-1.91-0.082-2.229-0.164c-0.237-0.063-0.338-0.228-0.301-0.492
		c0.055-0.629,0.104-1.386,0.15-2.27c0-0.173,0.091-0.26,0.273-0.26C142.656,2.647,143.34,2.68,143.951,2.734z M143.965,5.291
		c-0.019-0.265-0.037-0.515-0.055-0.752l-1.818-0.082c-0.01,0.246-0.023,0.487-0.041,0.725
		C142.688,5.245,143.326,5.282,143.965,5.291z M142.133,3.924l1.723,0.082c-0.027-0.265-0.055-0.52-0.082-0.766
		c-0.492-0.027-1.025-0.05-1.6-0.068C142.155,3.437,142.142,3.687,142.133,3.924z"/>
	<path fill="#948DBC" d="M149.215,3.801c0.228,0.046,0.679,0.091,1.354,0.137c-0.092-0.301-0.169-0.72-0.232-1.258
		c0-0.191,0.091-0.292,0.273-0.301c0.164,0.009,0.255,0.087,0.273,0.232c0.063,0.52,0.141,0.925,0.232,1.217
		c0.009,0.036,0.018,0.068,0.027,0.096v0.041c0.646,0.019,1.07,0.022,1.271,0.014c0.191,0.009,0.282,0.091,0.273,0.246
		c0,0.164-0.087,0.255-0.26,0.273c-0.237,0.019-0.779,0.009-1.627-0.027c-0.839-0.046-1.386-0.091-1.641-0.137
		c-0.155-0.027-0.232-0.118-0.232-0.273C148.928,3.869,149.023,3.782,149.215,3.801z M151.361,5.715
		c0.228,0.009,0.337,0.101,0.328,0.273c-0.01,0.164-0.128,0.255-0.355,0.273h-0.219c-0.748-0.009-1.23-0.068-1.449-0.178
		c-0.064-0.055-0.101-0.123-0.109-0.205c0.009-0.164,0.1-0.251,0.273-0.26c0.082,0,0.223,0.019,0.424,0.055
		C150.518,5.71,150.887,5.724,151.361,5.715z M152.045,9.789c0.072,0.392,0.104,0.866,0.096,1.422c0,0.255-0.137,0.401-0.41,0.438
		c-0.83,0.046-1.391,0.041-1.682-0.014c-0.174-0.009-0.246-0.104-0.219-0.287c-0.01-0.766-0.037-1.313-0.082-1.641
		c-0.019-0.228,0.072-0.347,0.273-0.355c0.1,0,0.178,0.036,0.232,0.109c0.492-0.027,0.911-0.032,1.258-0.014
		C151.803,9.447,151.98,9.562,152.045,9.789z M151.607,7.232c0.219,0.009,0.323,0.101,0.314,0.273
		c-0.01,0.164-0.128,0.255-0.355,0.273h-0.205c-0.675-0.009-1.112-0.06-1.313-0.15c-0.064-0.055-0.101-0.123-0.109-0.205
		c0.009-0.164,0.096-0.251,0.26-0.26c0.082,0,0.214,0.014,0.396,0.041C150.832,7.224,151.17,7.232,151.607,7.232z M150.35,9.994
		c0.018,0.364,0.031,0.706,0.041,1.025c-0.01,0.073,0.009,0.109,0.055,0.109c0.31,0.019,0.674,0.014,1.094-0.014
		c0.036-0.009,0.05-0.046,0.041-0.109c0-0.328-0.023-0.634-0.068-0.916c-0.01-0.073-0.046-0.109-0.109-0.109
		C151.047,9.972,150.695,9.976,150.35,9.994z M158.252,4.703c0.209,0.046,0.337,0.019,0.383-0.082
		c0.055-0.101,0.137-0.15,0.246-0.15c0.146,0.009,0.232,0.073,0.26,0.191c0.018,0.137-0.019,0.251-0.109,0.342
		c-0.164,0.191-0.396,0.273-0.697,0.246c-0.584-0.019-0.861-0.306-0.834-0.861c0.018-0.31,0.059-0.771,0.123-1.381
		c-0.42-0.027-0.898-0.055-1.436-0.082c-0.027,0.984-0.246,1.618-0.656,1.9c-0.055,0.046-0.123,0.068-0.205,0.068
		c-0.191-0.019-0.283-0.109-0.273-0.273c0-0.063,0.027-0.128,0.082-0.191c0.355-0.265,0.528-0.861,0.52-1.791
		c0-0.146,0.086-0.224,0.26-0.232c1.021,0.046,1.69,0.087,2.01,0.123c0.182,0.027,0.269,0.128,0.26,0.301
		c-0.046,0.583-0.092,1.094-0.137,1.531C158.02,4.58,158.088,4.694,158.252,4.703z M156.557,9.734
		c0.173,0.219,0.419,0.451,0.738,0.697c0.027-0.036,0.05-0.063,0.068-0.082c0.264-0.328,0.474-0.711,0.629-1.148
		c-0.748-0.036-1.404-0.104-1.969-0.205c-0.055-0.019-0.105-0.036-0.15-0.055c-0.128-0.046-0.188-0.142-0.178-0.287
		c0.027-0.173,0.123-0.246,0.287-0.219c0.574,0.118,1.34,0.205,2.297,0.26c0.236-0.009,0.342,0.087,0.314,0.287
		c-0.119,0.61-0.406,1.194-0.861,1.75c0.556,0.337,1.039,0.542,1.449,0.615c0.072,0.009,0.127,0.014,0.164,0.014
		c0.173,0.046,0.246,0.15,0.219,0.314c-0.027,0.155-0.119,0.232-0.273,0.232c-0.073,0-0.164-0.014-0.273-0.041
		c-0.492-0.101-1.03-0.333-1.613-0.697c-0.01-0.009-0.019-0.014-0.027-0.014c-0.347,0.347-0.684,0.579-1.012,0.697
		c-0.037,0.019-0.092,0.027-0.164,0.027c-0.183-0.027-0.27-0.128-0.26-0.301c0-0.109,0.055-0.187,0.164-0.232
		c0.291-0.109,0.564-0.282,0.82-0.52c-0.393-0.301-0.675-0.588-0.848-0.861c-0.019-0.046-0.027-0.087-0.027-0.123
		c0.018-0.164,0.109-0.246,0.273-0.246C156.415,9.598,156.492,9.644,156.557,9.734z"/>
	<path fill="#948DBC" d="M163.256,3.938c0.219,0.036,0.651,0.077,1.299,0.123c-0.082-0.292-0.146-0.716-0.191-1.271
		c0-0.191,0.091-0.292,0.273-0.301c0.164,0.009,0.255,0.087,0.273,0.232c0.055,0.52,0.113,0.925,0.178,1.217
		c0.009,0.036,0.018,0.068,0.027,0.096c0,0.027,0,0.05,0,0.068c0.684,0.019,1.13,0.022,1.34,0.014
		c0.191,0.009,0.282,0.091,0.273,0.246c0,0.164-0.087,0.255-0.26,0.273c-0.237,0.019-0.779,0.009-1.627-0.027
		c-0.839-0.046-1.386-0.091-1.641-0.137c-0.155-0.027-0.232-0.118-0.232-0.273C162.969,4.006,163.064,3.919,163.256,3.938z
		 M165.348,5.783c0.219,0.009,0.323,0.101,0.314,0.273c-0.01,0.164-0.128,0.255-0.355,0.273h-0.219
		c-0.748-0.009-1.23-0.068-1.449-0.178c-0.064-0.055-0.101-0.123-0.109-0.205c0.009-0.164,0.1-0.251,0.273-0.26
		c0.082,0,0.223,0.019,0.424,0.055C164.49,5.778,164.864,5.792,165.348,5.783z M166.004,9.502c0.063,0.383,0.091,0.839,0.082,1.367
		c0,0.246-0.133,0.388-0.396,0.424c-0.812,0.046-1.358,0.041-1.641-0.014c-0.174-0.009-0.246-0.104-0.219-0.287
		c-0.01-0.711-0.037-1.222-0.082-1.531c-0.019-0.219,0.072-0.333,0.273-0.342c0.082,0,0.141,0.022,0.178,0.068
		c0.51-0.027,0.938-0.032,1.285-0.014C165.775,9.174,165.949,9.283,166.004,9.502z M165.58,7.301
		c0.219,0.009,0.323,0.101,0.314,0.273c-0.01,0.164-0.128,0.255-0.355,0.273h-0.191c-0.684-0.009-1.126-0.06-1.326-0.15
		c-0.064-0.055-0.101-0.123-0.109-0.205c0.009-0.164,0.1-0.251,0.273-0.26c0.072,0,0.2,0.014,0.383,0.041
		C164.805,7.292,165.143,7.301,165.58,7.301z M164.322,9.707c0.027,0.347,0.045,0.67,0.055,0.971
		c-0.01,0.082,0.009,0.123,0.055,0.123c0.301,0.009,0.656,0,1.066-0.027c0.036-0.009,0.05-0.046,0.041-0.109
		c0-0.319-0.023-0.61-0.068-0.875c-0.01-0.063-0.046-0.096-0.109-0.096C165.015,9.685,164.668,9.688,164.322,9.707z M169.176,6.139
		c0.364,0.046,0.889,0.082,1.572,0.109l-0.014-1.463c-0.01-0.183,0.082-0.278,0.273-0.287c0.182,0,0.277,0.087,0.287,0.26
		l0.014,1.518h0.178c0.61,0.027,1.116,0.032,1.518,0.014c0.182,0,0.273,0.091,0.273,0.273c0,0.164-0.092,0.255-0.273,0.273
		c-0.146,0-0.297,0.005-0.451,0.014c-0.42-0.009-0.83-0.019-1.23-0.027l0.055,3.172c0,0.191-0.096,0.287-0.287,0.287
		c-0.164,0-0.256-0.087-0.273-0.26l-0.055-3.213c-0.52-0.027-1.021-0.063-1.504-0.109c-0.082-0.009-0.15-0.022-0.205-0.041
		c-0.128-0.046-0.191-0.146-0.191-0.301C168.889,6.185,168.993,6.111,169.176,6.139z"/>
	<path fill="#948DBC" d="M192.732,4.402c0.182,0,0.273,0.091,0.273,0.273c-0.019,0.164-0.109,0.251-0.273,0.26
		c-0.475-0.009-0.984-0.022-1.531-0.041c-0.092,0.446-0.137,0.711-0.137,0.793c0,0.273,0.378,0.415,1.135,0.424
		c0.055-0.101,0.141-0.15,0.26-0.15c0.182,0.019,0.273,0.118,0.273,0.301c-0.027,0.219-0.164,0.342-0.41,0.369
		c-1.249,0.009-1.851-0.306-1.805-0.943c0-0.118,0.036-0.388,0.109-0.807c-0.529-0.009-1.076-0.019-1.641-0.027
		c-0.073,0.319-0.232,0.697-0.479,1.135c-0.183,0.31-0.355,0.497-0.52,0.561c-0.128,0.063-0.246,0.055-0.355-0.027
		c-0.055-0.055-0.082-0.132-0.082-0.232c0.009-0.055,0.027-0.101,0.055-0.137c0.191-0.164,0.359-0.388,0.506-0.67
		c0.1-0.191,0.191-0.388,0.273-0.588c0-0.019,0.004-0.036,0.014-0.055c-0.684-0.019-1.395-0.032-2.133-0.041
		c-0.01,2.124-0.319,3.659-0.93,4.607c-0.073,0.137-0.155,0.241-0.246,0.314c-0.055,0.046-0.119,0.068-0.191,0.068
		c-0.191,0-0.287-0.091-0.287-0.273c0-0.073,0.031-0.142,0.096-0.205c0.646-0.729,0.979-2.306,0.998-4.73
		c0-0.219,0.104-0.323,0.314-0.314C186.594,4.266,188.831,4.312,192.732,4.402z M188.166,2.666
		c-0.109,0.164-0.224,0.314-0.342,0.451c-0.292,0.319-0.615,0.552-0.971,0.697c-0.101,0.036-0.201,0.05-0.301,0.041
		c-0.109-0.027-0.183-0.091-0.219-0.191c-0.019-0.191,0.045-0.306,0.191-0.342c0.346-0.109,0.656-0.328,0.93-0.656
		c0.282-0.347,0.46-0.72,0.533-1.121c0.045-0.146,0.141-0.219,0.287-0.219c0.2,0.019,0.291,0.128,0.273,0.328
		c-0.027,0.183-0.073,0.355-0.137,0.52c0.856,0.109,1.417,0.232,1.682,0.369c0.182,0.091,0.26,0.255,0.232,0.492
		c-0.092,0.438-0.256,0.761-0.492,0.971c-0.119,0.137-0.256,0.169-0.41,0.096c-0.119-0.073-0.15-0.183-0.096-0.328
		c0.063-0.082,0.141-0.178,0.232-0.287c0.082-0.109,0.15-0.246,0.205-0.41c0.009-0.055-0.014-0.091-0.068-0.109
		C189.414,2.849,188.904,2.748,188.166,2.666z M187.92,7.711l1.6,0.055c-0.064-0.255-0.119-0.62-0.164-1.094
		c0-0.191,0.091-0.292,0.273-0.301c0.154,0.009,0.246,0.087,0.273,0.232c0.045,0.465,0.1,0.82,0.164,1.066
		c0,0.027,0.004,0.055,0.014,0.082c0,0.009,0,0.019,0,0.027l1.832,0.055c0.173,0.009,0.26,0.101,0.26,0.273
		c-0.019,0.173-0.114,0.26-0.287,0.26l-3.992-0.123c-0.164-0.009-0.246-0.096-0.246-0.26C187.646,7.793,187.737,7.702,187.92,7.711z
		 M188.891,8.832l2.188,0.068c0.173,0.009,0.255,0.101,0.246,0.273c-0.01,0.164-0.101,0.251-0.273,0.26l-2.188-0.068
		c-0.164-0.027-0.246-0.114-0.246-0.26C188.617,8.923,188.708,8.832,188.891,8.832z M191.393,11.279
		c0.072,0.228,0.109,0.602,0.109,1.121c-0.019,0.228-0.133,0.351-0.342,0.369c-0.83,0.027-1.514,0.009-2.051-0.055
		c-0.21-0.036-0.301-0.173-0.273-0.41c-0.01-0.511-0.023-0.894-0.041-1.148c0-0.173,0.077-0.26,0.232-0.26
		c0.109,0,0.182,0.041,0.219,0.123h1.654C191.174,11.038,191.338,11.124,191.393,11.279z M189.164,9.844l1.75,0.082
		c0.173,0.009,0.26,0.101,0.26,0.273c-0.019,0.173-0.114,0.26-0.287,0.26l-1.75-0.082c-0.164-0.009-0.246-0.096-0.246-0.26
		C188.891,9.926,188.981,9.835,189.164,9.844z M189.314,11.525c0.009,0.173,0.014,0.374,0.014,0.602
		c0,0.063,0.027,0.096,0.082,0.096c0.318,0.027,0.834,0.041,1.545,0.041c0.036-0.009,0.05-0.036,0.041-0.082
		c0-0.164-0.023-0.36-0.068-0.588c-0.019-0.046-0.055-0.068-0.109-0.068H189.314z"/>
	<path fill="#948DBC" d="M199.965,3.541c-0.01,0.046-0.019,0.082-0.027,0.109c-0.027,0.137-0.06,0.255-0.096,0.355
		c0.364,0.21,0.725,0.351,1.08,0.424c0.182,0.046,0.255,0.159,0.219,0.342c-0.046,0.146-0.15,0.205-0.314,0.178
		c-0.073-0.009-0.146-0.022-0.219-0.041c-0.401-0.101-0.729-0.232-0.984-0.396c-0.201,0.374-0.442,0.61-0.725,0.711
		c-0.229,0.027-0.352-0.05-0.369-0.232c0-0.101,0.041-0.178,0.123-0.232c0.564-0.364,0.848-1.112,0.848-2.242
		c0.009-0.183,0.1-0.278,0.273-0.287c0.182,0.009,0.277,0.104,0.287,0.287c0,0.191-0.01,0.355-0.027,0.492l1.6,0.096
		c0.173,0.009,0.255,0.101,0.246,0.273c-0.01,0.164-0.101,0.251-0.273,0.26L199.965,3.541z M200.252,8.586
		c-0.565-0.046-0.926-0.091-1.08-0.137c-0.155-0.046-0.224-0.155-0.205-0.328c0.027-0.128,0.104-0.196,0.232-0.205
		c0.036,0,0.068,0.005,0.096,0.014c0.173,0.036,0.52,0.073,1.039,0.109c0.41,0.027,0.756,0.036,1.039,0.027
		c0.191,0,0.287,0.091,0.287,0.273c-0.01,0.191-0.105,0.282-0.287,0.273c-0.183,0.009-0.369,0.009-0.561,0v1.436
		c0.2-0.009,0.378-0.022,0.533-0.041c0.219-0.036,0.342,0.036,0.369,0.219c0.009,0.173-0.078,0.282-0.26,0.328
		c-0.565,0.063-1.268,0.096-2.105,0.096c-0.191-0.009-0.292-0.104-0.301-0.287c0-0.183,0.096-0.273,0.287-0.273
		c0.337,0,0.643-0.005,0.916-0.014V8.586z M203.779,9.16c0.109,0.101,0.209,0.187,0.301,0.26c0.1-0.465,0.182-0.993,0.246-1.586
		c-0.265-0.019-0.506-0.036-0.725-0.055c-0.146-0.027-0.224-0.114-0.232-0.26c0.009-0.183,0.109-0.273,0.301-0.273
		c0.856,0.082,1.75,0.142,2.68,0.178c0.2,0.027,0.301,0.169,0.301,0.424c-0.046,0.528-0.087,1.413-0.123,2.652
		c0,0.574,0.209,0.861,0.629,0.861c0.291,0.063,0.451-0.06,0.479-0.369c0.036-0.146,0.127-0.219,0.273-0.219
		c0.182,0.027,0.269,0.142,0.26,0.342c-0.064,0.547-0.401,0.812-1.012,0.793c-0.784-0.046-1.176-0.501-1.176-1.367
		c0.027-0.729,0.063-1.591,0.109-2.584c-0.447-0.027-0.848-0.05-1.203-0.068c-0.092,0.738-0.196,1.362-0.314,1.873
		c0.164,0.091,0.323,0.164,0.479,0.219c0.182,0.046,0.255,0.164,0.219,0.355c-0.046,0.146-0.155,0.205-0.328,0.178
		c-0.082-0.019-0.16-0.041-0.232-0.068c-0.109-0.036-0.21-0.077-0.301-0.123c-0.283,0.93-0.652,1.436-1.107,1.518
		c-0.229,0-0.342-0.091-0.342-0.273c0-0.155,0.086-0.246,0.26-0.273c0.282-0.101,0.523-0.524,0.725-1.271
		c-0.201-0.128-0.365-0.278-0.492-0.451c-0.064-0.063-0.101-0.132-0.109-0.205c0-0.173,0.086-0.265,0.26-0.273
		C203.665,9.092,203.725,9.114,203.779,9.16z M204.805,3.418c-0.037,0.137-0.078,0.273-0.123,0.41
		c0.4,0.219,0.807,0.369,1.217,0.451c0.182,0.046,0.255,0.159,0.219,0.342c-0.046,0.146-0.15,0.205-0.314,0.178
		c-0.082-0.009-0.16-0.022-0.232-0.041c-0.465-0.118-0.825-0.269-1.08-0.451c-0.183,0.328-0.396,0.538-0.643,0.629
		c-0.229,0.027-0.352-0.05-0.369-0.232c0-0.101,0.041-0.178,0.123-0.232c0.51-0.347,0.766-1.066,0.766-2.16
		c0.009-0.173,0.1-0.269,0.273-0.287c0.182,0.019,0.277,0.114,0.287,0.287c0,0.219-0.014,0.41-0.041,0.574l1.682,0.055
		c0.173,0.009,0.255,0.096,0.246,0.26c-0.01,0.173-0.101,0.265-0.273,0.273L204.805,3.418z"/>
	<path fill="#948DBC" d="M213.801,2.051c0.592,0.055,1.189,0.096,1.791,0.123c-0.019-0.173-0.032-0.355-0.041-0.547
		c0-0.2,0.086-0.306,0.26-0.314c0.173,0.009,0.269,0.091,0.287,0.246c0.027,0.237,0.045,0.451,0.055,0.643
		c0.501,0.027,1.007,0.041,1.518,0.041l0.041-0.615c0.018-0.164,0.118-0.246,0.301-0.246c0.191,0.009,0.282,0.109,0.273,0.301
		c-0.01,0.2-0.023,0.388-0.041,0.561c0.629,0,1.248-0.009,1.859-0.027c0.191-0.009,0.291,0.082,0.301,0.273
		c-0.01,0.164-0.101,0.255-0.273,0.273c-0.684,0.027-1.322,0.046-1.914,0.055c-0.019,0.191-0.032,0.378-0.041,0.561
		c-0.037,0.173-0.142,0.26-0.314,0.26c-0.191-0.009-0.283-0.114-0.273-0.314l0.041-0.506c-0.511-0.009-0.98-0.022-1.408-0.041
		c0.018,0.155,0.036,0.292,0.055,0.41c0.009,0.055,0.018,0.101,0.027,0.137c0.027,0.183-0.055,0.292-0.246,0.328
		c-0.155,0.009-0.256-0.06-0.301-0.205c-0.046-0.183-0.082-0.415-0.109-0.697c-0.894-0.036-1.518-0.087-1.873-0.15
		c-0.191-0.019-0.292-0.114-0.301-0.287C213.481,2.11,213.591,2.023,213.801,2.051z M217.219,4.758
		c-0.019,0.355-0.037,0.67-0.055,0.943c0.711,0.027,1.426,0.05,2.146,0.068c0.219,0.019,0.328,0.123,0.328,0.314
		c0,0.109-0.041,0.314-0.123,0.615c-0.064,0.282-0.137,0.465-0.219,0.547c-0.092,0.073-0.196,0.091-0.314,0.055
		c-0.128-0.082-0.169-0.205-0.123-0.369c0.009-0.027,0.018-0.05,0.027-0.068c0.055-0.146,0.109-0.328,0.164-0.547
		c0-0.027-0.023-0.041-0.068-0.041c-1.34-0.027-2.73-0.06-4.17-0.096c-0.055,0.401-0.146,0.729-0.273,0.984
		c-0.027,0.036-0.06,0.082-0.096,0.137c-0.064,0.063-0.146,0.091-0.246,0.082c-0.174-0.027-0.256-0.123-0.246-0.287
		c0.009-0.046,0.022-0.091,0.041-0.137c0.191-0.41,0.296-0.875,0.314-1.395c0.018-0.183,0.113-0.273,0.287-0.273
		c0.173,0.009,0.264,0.101,0.273,0.273v0.068c0.574,0.019,1.148,0.036,1.723,0.055l0.068-0.984c0.018-0.164,0.113-0.246,0.287-0.246
		C217.137,4.466,217.228,4.566,217.219,4.758z M215.879,7.314l2.188,0.055c0.173,0.009,0.255,0.101,0.246,0.273
		c-0.01,0.164-0.101,0.251-0.273,0.26l-2.188-0.055c-0.164-0.027-0.246-0.114-0.246-0.26C215.605,7.405,215.696,7.314,215.879,7.314
		z M216.07,12.1c0.346,0.046,0.893,0.077,1.641,0.096c0.656,0,1.212-0.022,1.668-0.068c0.2-0.009,0.301,0.082,0.301,0.273
		c0,0.146-0.082,0.237-0.246,0.273c-0.42,0.046-0.994,0.063-1.723,0.055c-0.83,0-1.422-0.036-1.777-0.109
		c-0.128-0.036-0.191-0.123-0.191-0.26c0-0.082,0.027-0.15,0.082-0.205S215.961,12.081,216.07,12.1z M219.01,9.01
		c0.027,0.31,0.05,0.725,0.068,1.244c0.018,0.52,0.018,0.834,0,0.943c-0.01,0.128-0.119,0.214-0.328,0.26
		c-0.483,0.063-1.158,0.073-2.023,0.027c-0.355-0.027-0.497-0.173-0.424-0.438c0.109-0.966,0.127-1.695,0.055-2.188
		c-0.019-0.21,0.077-0.314,0.287-0.314c0.091,0,0.159,0.027,0.205,0.082c0.592,0.009,1.166,0.027,1.723,0.055
		C218.8,8.7,218.945,8.81,219.01,9.01z M216.918,10.322c-0.01,0.191-0.023,0.392-0.041,0.602c-0.01,0.046,0.004,0.068,0.041,0.068
		c0.856,0.036,1.39,0.032,1.6-0.014c0.018-0.009,0.027-0.027,0.027-0.055c0-0.2-0.005-0.383-0.014-0.547L216.918,10.322z
		 M218.518,9.844c-0.01-0.191-0.023-0.369-0.041-0.533c-0.019-0.055-0.051-0.087-0.096-0.096c-0.447-0.019-0.926-0.036-1.436-0.055
		c0.009,0.183,0.009,0.392,0,0.629L218.518,9.844z"/>
</g>
</svg>
