<?xml version="1.0" encoding="utf-8"?>
<!-- Generator: Adobe Illustrator 16.0.0, SVG Export Plug-In . SVG Version: 6.00 Build 0)  -->
<!DOCTYPE svg PUBLIC "-//W3C//DTD SVG 1.1//EN" "http://www.w3.org/Graphics/SVG/1.1/DTD/svg11.dtd">
<svg version="1.1" id="圖層_1" xmlns="http://www.w3.org/2000/svg" xmlns:xlink="http://www.w3.org/1999/xlink" x="0px" y="0px"
	 width="62.899px" height="33.899px" viewBox="0 0 62.899 33.899" enable-background="new 0 0 62.899 33.899" xml:space="preserve">
<g>
	<g>
		<path d="M1.238,18.151c8.314-4.838,20.633-8.933,30.204-6.179c0.88,0.253,1.253-1.115,0.377-1.367
			C21.82,7.729,9.201,11.877,0.522,16.926C-0.267,17.386,0.446,18.611,1.238,18.151L1.238,18.151z"/>
	</g>
</g>
<g>
	<g>
		<path d="M8.322,14.568c2.504-1.112,2.921-4.63,3.104-7.017c0.163-2.117,0.127-5.844-2-7.123c-4.305-2.589-6.485,7.284-5.645,9.882
			C4.071,10.02,4.362,9.73,4.652,9.439c-2.372-0.873-5.757,1.523-4.3,4.207c1.433,2.641,4.808,2.157,7.136,1.089
			c0.83-0.381,0.109-1.603-0.716-1.225c-1.027,0.472-2.085,0.685-3.216,0.665c-2.993-0.054-2.154-4.428,0.719-3.369
			c0.504,0.186,1.03-0.383,0.872-0.872c-0.524-1.623-0.115-3.36,0.417-4.929c0.299-0.882,1.829-4.444,3.222-3.281
			c1.493,1.246,1.31,4.114,1.222,5.827c-0.096,1.871-0.442,4.922-2.402,5.792C6.772,13.714,7.494,14.935,8.322,14.568L8.322,14.568z
			"/>
	</g>
</g>
<g>
	<g>
		<path d="M8.006,14.956c-0.01-0.136-0.021-0.271-0.031-0.407c-0.464,0.063-0.928,0.125-1.392,0.188
			c0.473,2.897,0.758,5.272-0.132,8.211c-0.512,1.687-2.569,8.006-5.295,6.729c-0.823-0.385-1.543,0.837-0.716,1.225
			c3.379,1.582,5.434-2.711,6.509-5.218c0.693-1.614,1.167-3.236,1.429-4.97c0.364-2.408-0.061-4.104-0.428-6.354
			c-0.129-0.789-1.452-0.604-1.392,0.188c0.01,0.136,0.021,0.271,0.031,0.407C6.657,15.861,8.075,15.868,8.006,14.956L8.006,14.956z
			"/>
	</g>
</g>
<g>
	<g>
		<path d="M7.981,22.644c1.003-2.813,2.354-0.438,2.688,0.218c0.332,0.65,0.484,1.423,0.643,2.131
			c0.213,0.95,0.319,1.928,0.337,2.901c0.02,1.074-0.14,2.142-0.429,3.174c-0.534,1.903-1.652,1.434-2.755,0.22
			C7.849,30.61,6.85,31.615,7.463,32.29c1.182,1.302,2.922,2.443,4.325,0.781c1.267-1.5,1.352-4.086,1.251-5.939
			c-0.116-2.137-0.587-4.518-1.947-6.215c-1.458-1.821-3.852-0.403-4.478,1.351C6.306,23.13,7.676,23.499,7.981,22.644L7.981,22.644
			z"/>
	</g>
</g>
<g>
	<g>
		<path d="M16.422,4.123c-0.471,3.942-2.75,9.32-0.403,13.023c0.487,0.77,1.714,0.06,1.224-0.715
			c-2.122-3.35,0.164-8.685,0.597-12.309C17.947,3.216,16.529,3.227,16.422,4.123L16.422,4.123z"/>
	</g>
</g>
<g>
	<g>
		<path d="M25.076,15.598c-1.133-2.371-3.01,1.381-3.401,2.232c-1.121,2.445-2.428,5.303-2.805,7.988
			c-0.325,2.308,0.099,5.851,3.162,5.713c3.018-0.136,4.915-3.664,5.45-6.221c0.186-0.892-1.18-1.271-1.367-0.377
			c-0.435,2.083-1.592,4.429-3.777,5.114c-2.435,0.765-2.361-3.285-1.96-4.615c0.479-1.588,1.04-3.155,1.626-4.706
			c0.393-1.038,0.82-2.063,1.313-3.058c0.162-0.325,0.342-0.64,0.535-0.948c0.076-0.124,0.163-0.24,0.26-0.349
			c0.245-0.286-0.422-0.401-0.258-0.06C24.246,17.137,25.468,16.418,25.076,15.598L25.076,15.598z"/>
	</g>
</g>
<g>
	<g>
		<path d="M23.964,24.08c-1.809-0.044-0.243,2.954,0.082,3.571c0.878,1.671,2.354,3.734,4.418,3.847
			c0.914,0.049,0.909-1.368,0-1.418c-1.265-0.068-2.217-1.539-2.82-2.494c-0.337-0.534-0.632-1.104-0.869-1.69
			c-0.086-0.213-0.155-0.432-0.216-0.652c-0.171-0.618,0.298,0.276-0.595,0.255C24.878,25.52,24.876,24.102,23.964,24.08
			L23.964,24.08z"/>
	</g>
</g>
<g>
	<g>
		<path d="M40.755,4.456c0.144,8.889,0.011,17.777,0,26.667c-0.001,0.914,1.416,0.914,1.417,0c0.011-8.89,0.145-17.778,0-26.667
			C42.158,3.542,40.74,3.542,40.755,4.456L40.755,4.456z"/>
	</g>
</g>
<g>
	<g>
		<path d="M38.186,15.931c-0.667,1.364-1.167,2.802-1.833,4.167c-0.399,0.817,0.823,1.536,1.224,0.715
			c0.667-1.364,1.167-2.802,1.833-4.167C39.809,15.829,38.586,15.11,38.186,15.931L38.186,15.931z"/>
	</g>
</g>
<g>
	<g>
		<path d="M42.019,14.646c1.391,3.021,3.347,5.685,5.333,8.334c0.541,0.723,1.772,0.017,1.224-0.715
			c-1.986-2.65-3.943-5.313-5.333-8.334C42.86,13.101,41.639,13.822,42.019,14.646L42.019,14.646z"/>
	</g>
</g>
<g>
	<g>
		<path d="M55.463,10.82c-2.273,1.272-4.367,0.226-5.105-2.194c-0.83-2.722,1.111-4.916,3.652-5.538
			c4.946-1.212,5.856,7.024,1.456,8.495c-0.862,0.288-0.493,1.657,0.377,1.367c6.17-2.063,4.622-12.416-2.209-11.229
			c-3.496,0.607-5.445,3.951-4.642,7.281c0.819,3.398,4.249,4.687,7.188,3.043C56.976,11.598,56.262,10.374,55.463,10.82
			L55.463,10.82z"/>
	</g>
</g>
<g>
	<g>
		<path d="M58.978,15.041c-1.581,1.818-4.217,3.364-6.666,3.458c-0.911,0.035-0.915,1.453,0,1.418
			c2.816-0.109,5.838-1.769,7.668-3.874C60.577,15.356,59.579,14.349,58.978,15.041L58.978,15.041z"/>
	</g>
</g>
<g>
	<g>
		<path d="M52.902,23.891c1.922-0.354,3.912-0.308,5.858-0.308c0.914-0.001,0.914-1.418,0-1.418c-2.08,0.001-4.182-0.02-6.235,0.358
			C51.627,22.689,52.009,24.055,52.902,23.891L52.902,23.891z"/>
	</g>
</g>
<g>
	<g>
		<path d="M55.271,19.542c0.18,3.566,0.431,7.106,0,10.666c-0.11,0.906,1.309,0.896,1.417,0c0.431-3.56,0.18-7.1,0-10.666
			C56.642,18.632,55.224,18.627,55.271,19.542L55.271,19.542z"/>
	</g>
</g>
<g>
	<g>
		<path d="M49.479,31.583c4.245,0,8.49,0,12.735,0c0.914,0,0.914-1.418,0-1.418c-4.245,0-8.49,0-12.735,0
			C48.565,30.166,48.565,31.583,49.479,31.583L49.479,31.583z"/>
	</g>
</g>
<g>
	<g>
		<path d="M43.772,0.844c-2.824,1.58-5.455,3.475-7.396,6.097c-1.019,1.376-2.51,4.339-1.174,5.967
			c2.204,2.687,8.179-0.552,10.286-2.007c0.746-0.516,0.039-1.745-0.716-1.225c-2.016,1.393-5.463,3.221-7.987,2.64
			c-2.05-0.472,0.791-4.661,1.371-5.376c1.682-2.074,4.027-3.583,6.333-4.873C45.286,1.622,44.571,0.397,43.772,0.844L43.772,0.844z
			"/>
	</g>
</g>
<g>
	<g>
		<path d="M1.863,74.976c8.314-4.838,20.633-8.932,30.204-6.179c0.88,0.253,1.253-1.114,0.377-1.367
			c-9.999-2.876-22.618,1.272-31.296,6.321C0.358,74.21,1.071,75.436,1.863,74.976L1.863,74.976z"/>
	</g>
</g>
<g>
	<g>
		<path d="M8.946,71.392c2.504-1.111,2.921-4.629,3.104-7.016c0.163-2.117,0.127-5.844-2-7.123
			c-4.305-2.589-6.485,7.284-5.645,9.883c0.291-0.291,0.581-0.581,0.872-0.872c-2.372-0.873-5.757,1.523-4.3,4.208
			c1.433,2.641,4.808,2.156,7.136,1.088c0.83-0.381,0.109-1.603-0.716-1.225C6.37,70.807,5.312,71.02,4.181,71
			c-2.993-0.053-2.154-4.427,0.719-3.368c0.504,0.186,1.03-0.384,0.872-0.872c-0.524-1.623-0.115-3.361,0.417-4.929
			c0.299-0.882,1.829-4.444,3.222-3.281c1.493,1.247,1.31,4.114,1.222,5.827c-0.096,1.871-0.442,4.922-2.402,5.793
			C7.397,70.539,8.119,71.76,8.946,71.392L8.946,71.392z"/>
	</g>
</g>
<g>
	<g>
		<path d="M8.63,71.781C8.62,71.645,8.61,71.509,8.6,71.373c-0.464,0.063-0.928,0.127-1.392,0.189
			c0.473,2.896,0.758,5.271-0.132,8.211c-0.512,1.687-2.569,8.006-5.295,6.729c-0.823-0.385-1.543,0.837-0.716,1.225
			c3.379,1.582,5.434-2.711,6.509-5.218c0.693-1.614,1.167-3.236,1.429-4.97c0.364-2.408-0.061-4.105-0.428-6.354
			c-0.129-0.789-1.452-0.604-1.392,0.188c0.01,0.137,0.021,0.272,0.031,0.408C7.282,72.686,8.7,72.693,8.63,71.781L8.63,71.781z"/>
	</g>
</g>
<g>
	<g>
		<path d="M8.605,79.469c1.003-2.813,2.354-0.438,2.688,0.218c0.332,0.65,0.484,1.424,0.643,2.131
			c0.213,0.951,0.319,1.928,0.337,2.9c0.02,1.074-0.14,2.143-0.429,3.175c-0.534,1.903-1.652,1.434-2.755,0.22
			c-0.616-0.678-1.615,0.327-1.002,1.002c1.182,1.302,2.922,2.443,4.325,0.781c1.267-1.5,1.352-4.086,1.251-5.939
			c-0.116-2.137-0.587-4.518-1.947-6.215c-1.458-1.821-3.852-0.403-4.478,1.351C6.931,79.956,8.3,80.324,8.605,79.469L8.605,79.469z
			"/>
	</g>
</g>
<g>
	<g>
		<path d="M17.046,60.948c-0.471,3.942-2.75,9.319-0.403,13.024c0.487,0.77,1.714,0.059,1.224-0.717
			c-2.122-3.349,0.164-8.684,0.597-12.308C18.572,60.042,17.153,60.052,17.046,60.948L17.046,60.948z"/>
	</g>
</g>
<g>
	<g>
		<path d="M26.494,71.754c-2.18-1.138-3.705,2.161-4.425,3.65c-1.186,2.452-2.391,5.262-2.656,7.994
			c-0.212,2.19,0.636,5.313,3.419,4.934c2.944-0.402,4.72-3.566,5.272-6.196c0.188-0.892-1.179-1.271-1.366-0.377
			c-0.438,2.083-1.586,4.414-3.766,5.111c-2.461,0.787-2.361-3.304-1.966-4.635c0.362-1.22,3.189-10.083,4.771-9.257
			C26.588,73.401,27.304,72.178,26.494,71.754L26.494,71.754z"/>
	</g>
</g>
<g>
	<g>
		<path d="M24.588,80.906c-1.809-0.045-0.243,2.953,0.082,3.57c0.878,1.671,2.354,3.734,4.418,3.846
			c0.914,0.051,0.909-1.367,0-1.416c-1.265-0.069-2.217-1.541-2.82-2.495c-0.337-0.534-0.632-1.104-0.869-1.69
			c-0.086-0.213-0.155-0.432-0.216-0.652c-0.171-0.617,0.298,0.277-0.595,0.254C25.503,82.345,25.5,80.927,24.588,80.906
			L24.588,80.906z"/>
	</g>
</g>
<g>
	<g>
		<path d="M41.225,63.364c0.144,8.889,0.011,17.778,0,26.667c-0.001,0.914,1.416,0.914,1.417,0c0.011-8.889,0.145-17.778,0-26.667
			C42.627,62.451,41.209,62.449,41.225,63.364L41.225,63.364z"/>
	</g>
</g>
<g>
	<g>
		<path d="M38.655,74.839c-0.667,1.365-1.167,2.802-1.833,4.166c-0.399,0.818,0.823,1.537,1.224,0.717
			c0.667-1.365,1.167-2.803,1.833-4.168C40.278,74.737,39.056,74.017,38.655,74.839L38.655,74.839z"/>
	</g>
</g>
<g>
	<g>
		<path d="M42.488,73.554c1.391,3.021,3.347,5.684,5.333,8.334c0.541,0.723,1.772,0.018,1.224-0.715
			c-1.986-2.65-3.943-5.313-5.333-8.334C43.33,72.009,42.108,72.73,42.488,73.554L42.488,73.554z"/>
	</g>
</g>
<g>
	<g>
		<path d="M56.087,67.646c-2.273,1.271-4.367,0.225-5.105-2.195c-0.83-2.723,1.111-4.916,3.652-5.538
			c4.946-1.212,5.856,7.024,1.456,8.495c-0.862,0.289-0.493,1.657,0.377,1.367c6.17-2.063,4.622-12.416-2.209-11.229
			c-3.496,0.606-5.445,3.951-4.642,7.281c0.819,3.398,4.249,4.686,7.188,3.041C57.601,68.423,56.886,67.199,56.087,67.646
			L56.087,67.646z"/>
	</g>
</g>
<g>
	<g>
		<path d="M59.603,71.866c-1.581,1.817-4.217,3.364-6.666,3.458c-0.911,0.035-0.915,1.453,0,1.418
			c2.816-0.109,5.838-1.77,7.668-3.874C61.201,72.181,60.203,71.175,59.603,71.866L59.603,71.866z"/>
	</g>
</g>
<g>
	<g>
		<path d="M54.033,84.688c1.922-0.354,3.912-0.308,5.858-0.308c0.914,0,0.914-1.418,0-1.418c-2.08,0.001-4.182-0.02-6.235,0.358
			C52.758,83.486,53.139,84.852,54.033,84.688L54.033,84.688z"/>
	</g>
</g>
<g>
	<g>
		<path d="M55.895,76.621c0.18,4.886,0.426,9.75,0,14.63c-0.08,0.911,1.338,0.903,1.417,0c0.427-4.88,0.181-9.744,0-14.63
			C57.278,75.709,55.861,75.707,55.895,76.621L55.895,76.621z"/>
	</g>
</g>
<g>
	<g>
		<path d="M-3.758,93.292c23.53,0,47.059,0,70.589,0c0.914,0,0.914-1.418,0-1.418c-23.53,0-47.059,0-70.589,0
			C-4.672,91.874-4.672,93.292-3.758,93.292L-3.758,93.292z"/>
	</g>
</g>
<g>
	<g>
		<path d="M44.242,59.751c-2.824,1.58-5.455,3.476-7.396,6.098c-1.019,1.376-2.51,4.339-1.174,5.967
			c2.204,2.687,8.179-0.553,10.286-2.008c0.746-0.516,0.039-1.744-0.716-1.223c-2.016,1.392-5.463,3.22-7.987,2.639
			c-2.05-0.471,0.791-4.661,1.371-5.377c1.682-2.073,4.027-3.582,6.333-4.871C45.755,60.53,45.041,59.305,44.242,59.751
			L44.242,59.751z"/>
	</g>
</g>
<g>
	<g>
		<path d="M97.812-28.199c10.972-5.363,23.617-5.284,35.548-6.091c14.643-0.991,29.293-2.027,43.896,0.025
			c0.894,0.126,1.279-1.24,0.377-1.366c-14.735-2.072-29.493-1.09-44.272-0.077c-12.194,0.836-25.046,0.802-36.263,6.285
			C96.276-29.021,96.995-27.799,97.812-28.199L97.812-28.199z"/>
	</g>
</g>
<g>
	<g>
		<path d="M108.927-43.664c0.271,0.275-0.376,2.304-0.466,2.695c-0.228,0.986-0.496,1.961-0.706,2.951
			c-0.122,0.576,0.484,1.154,1.041,0.8c1.603-1.017,3.033-2.25,4.825-2.937c-0.299-0.228-0.598-0.456-0.897-0.684
			c0.185,2.423-0.945,4.488-1.891,6.646c-0.362,0.829,0.858,1.551,1.225,0.716c1.039-2.374,2.286-4.697,2.084-7.361
			c-0.032-0.418-0.437-0.86-0.897-0.684c-1.918,0.736-3.445,1.99-5.163,3.081c0.347,0.267,0.693,0.534,1.041,0.8
			c0.333-1.572,2.173-5.638,0.807-7.025C109.288-45.318,108.286-44.315,108.927-43.664L108.927-43.664z"/>
	</g>
</g>
<g>
	<g>
		<path d="M101.251-33.842c-3.938,9.272-8.996,22.653-3.946,32.389c0.421,0.812,1.645,0.094,1.225-0.716
			c-4.762-9.18,0.21-22.161,3.946-30.958C102.829-33.958,101.608-34.681,101.251-33.842L101.251-33.842z"/>
	</g>
</g>
<g>
	<g>
		<path d="M107.952-30.331c-2.17,1.944-2.832,4.722-3.195,7.506c-0.117,0.904,1.301,0.893,1.418,0
			c0.314-2.414,0.901-4.821,2.779-6.504C109.635-29.94,108.63-30.938,107.952-30.331L107.952-30.331z"/>
	</g>
</g>
<g>
	<g>
		<path d="M113.765-27.228c0.538,0.321,0.919,1.067,1.249,1.577c0.544,0.841,1.048,1.735,1.432,2.662
			c0.345,0.832,1.717,0.467,1.367-0.377c-0.435-1.048-0.971-2.041-1.575-3c-0.458-0.727-0.999-1.633-1.758-2.085
			C113.693-28.92,112.981-27.695,113.765-27.228L113.765-27.228z"/>
	</g>
</g>
<g>
	<g>
		<path d="M109.627-23.332c0.365,0.364,0.652,0.729,0.892,1.188c0.424,0.81,1.647,0.093,1.225-0.716
			c-0.292-0.557-0.67-1.033-1.114-1.475C109.981-24.979,108.979-23.977,109.627-23.332L109.627-23.332z"/>
	</g>
</g>
<g>
	<g>
		<path d="M104.829-17.878c4.111-2.226,8.746-2.249,13.306-2.26c0.914-0.002,0.914-1.419,0-1.417
			c-4.826,0.012-9.677,0.101-14.021,2.453C103.31-18.667,104.025-17.443,104.829-17.878L104.829-17.878z"/>
	</g>
</g>
<g>
	<g>
		<path d="M107.836-13.883c1.671-1.249,3.64-1.242,5.641-1.247c0.914-0.002,0.914-1.419,0-1.417
			c-2.236,0.005-4.492,0.046-6.355,1.44C106.399-14.566,107.104-13.335,107.836-13.883L107.836-13.883z"/>
	</g>
</g>
<g>
	<g>
		<path d="M108.337-11.479c1.476-0.365,2.954-0.626,4.478-0.649c0.913-0.014,0.914-1.431,0-1.417
			c-1.646,0.025-3.26,0.305-4.854,0.699C107.074-12.626,107.45-11.26,108.337-11.479L108.337-11.479z"/>
	</g>
</g>
<g>
	<g>
		<path d="M114.214-6.866c-0.743,0.998-2.901,1.047-3.993,1.048c-1.31,0.001-3.29-0.302-2.3-1.968
			c1.076-1.812,3.508-2.735,5.328-1.517c2.34,1.567-0.379,3.581-1.942,4.117c-0.859,0.295-0.49,1.664,0.377,1.367
			c2.443-0.838,5.369-3.395,3.038-6.028c-2.134-2.41-5.74-1.512-7.596,0.753c-1.729,2.111-0.79,4.152,1.801,4.583
			c1.995,0.332,5.186,0.137,6.512-1.64C115.986-6.884,114.754-7.589,114.214-6.866L114.214-6.866z"/>
	</g>
</g>
<g>
	<g>
		<path d="M124.49-39.883c-2.193,4.496-4.315,9.597-3.738,14.697c0.102,0.897,1.521,0.907,1.418,0
			c-0.55-4.847,1.461-9.711,3.545-13.981C126.113-39.985,124.891-40.704,124.49-39.883L124.49-39.883z"/>
	</g>
</g>
<g>
	<g>
		<path d="M125.616-30.692c1.197,1.154,2.704,2.073,4.315,2.509c0.884,0.239,1.258-1.128,0.377-1.367
			c-1.378-0.373-2.666-1.157-3.69-2.144C125.959-32.329,124.957-31.328,125.616-30.692L125.616-30.692z"/>
	</g>
</g>
<g>
	<g>
		<path d="M133.418-40.063c-0.702,4.153-1.599,8.289-1.338,12.524c0.057,0.908,1.474,0.913,1.418,0
			c-0.253-4.11,0.604-8.117,1.287-12.147C134.937-40.58,133.571-40.962,133.418-40.063L133.418-40.063z"/>
	</g>
</g>
<g>
	<g>
		<path d="M135.425-30.932c1.455,1.106,2.775,2.366,4.34,3.326c0.781,0.479,1.492-0.747,0.715-1.224
			c-1.562-0.959-2.886-2.221-4.34-3.326C135.413-32.709,134.708-31.478,135.425-30.932L135.425-30.932z"/>
	</g>
</g>
<g>
	<g>
		<path d="M122.127-18.217c1.963-0.878,4.397-1.176,6.494-1.606c0.895-0.183,0.516-1.549-0.377-1.366
			c-2.237,0.458-4.737,0.812-6.832,1.749C120.58-19.068,121.301-17.847,122.127-18.217L122.127-18.217z"/>
	</g>
</g>
<g>
	<g>
		<path d="M124.567-19.642c-0.14,3.645,0.277,7.287-0.174,10.919c-0.112,0.906,1.307,0.895,1.418,0
			c0.45-3.632,0.033-7.275,0.174-10.919C126.02-20.556,124.602-20.553,124.567-19.642L124.567-19.642z"/>
	</g>
</g>
<g>
	<g>
		<path d="M122.297-5.937c2.123-1.428,4.202-2.917,6.325-4.345c0.754-0.507,0.046-1.735-0.715-1.224
			c-2.123,1.427-4.203,2.917-6.325,4.345C120.829-6.653,121.537-5.425,122.297-5.937L122.297-5.937z"/>
	</g>
</g>
<g>
	<g>
		<path d="M130.621-17.152c1.771-1.62,4.443-2.848,6.817-3.127c2.401-0.283,2.035,3.525,2.165,5.114
			c0.184,2.26,0.65,6.423,3.886,4.768c0.814-0.417,0.097-1.639-0.715-1.224c-1.848,0.945-1.785-3.935-1.867-4.966
			c-0.106-1.331-0.104-3.135-0.969-4.243c-2.206-2.829-8.474,0.988-10.319,2.676C128.943-17.536,129.948-16.536,130.621-17.152
			L130.621-17.152z"/>
	</g>
</g>
<g>
	<g>
		<path d="M133.867-19.896c-1.95,3.436-2.063,7.841-2.076,11.695c-0.003,0.914,1.415,0.914,1.418,0
			c0.012-3.607,0.056-7.761,1.883-10.979C135.542-19.977,134.318-20.69,133.867-19.896L133.867-19.896z"/>
	</g>
</g>
<g>
	<g>
		<path d="M130.412-12.124c2-0.003,4-0.007,6-0.01c0.914-0.001,0.914-1.419,0-1.417c-2,0.003-4,0.007-6,0.01
			C129.498-13.539,129.498-12.122,130.412-12.124L130.412-12.124z"/>
	</g>
</g>
<g>
	<g>
		<path d="M149.73-37.902c0.03,2.556,0.229,5.887,1.775,8.021c0.531,0.732,1.762,0.026,1.225-0.716
			c-1.407-1.939-1.555-4.983-1.582-7.306C151.137-38.815,149.719-38.816,149.73-37.902L149.73-37.902z"/>
	</g>
</g>
<g>
	<g>
		<path d="M162.42-38.402c0.946,2.663-0.979,5.871-2.247,8.125c-0.448,0.798,0.776,1.512,1.225,0.716
			c1.46-2.596,3.476-6.161,2.39-9.218C163.484-39.634,162.114-39.266,162.42-38.402L162.42-38.402z"/>
	</g>
</g>
<g>
	<g>
		<path d="M154.802-29.224c0.367,0.684,0.9,1.263,1.447,1.808c0.647,0.646,1.65-0.356,1.002-1.002
			c-0.466-0.464-0.913-0.938-1.225-1.521C155.595-30.745,154.372-30.029,154.802-29.224L154.802-29.224z"/>
	</g>
</g>
<g>
	<g>
		<path d="M145.775-26.75c-0.344,2.01,0.353,4.252,2.333,5.13c0.827,0.367,1.549-0.854,0.715-1.224
			c-1.375-0.61-1.927-2.094-1.681-3.53C147.294-27.267,145.929-27.65,145.775-26.75L145.775-26.75z"/>
	</g>
</g>
<g>
	<g>
		<path d="M147.26-22.399c3.022-3.317,7.582-3.753,11.825-3.814c3.066-0.044,11.806,2.201,5.988,6.002
			c-0.762,0.498-0.053,1.725,0.715,1.224c4.427-2.893,3.276-5.972-1.315-7.688c-5.605-2.095-14.061-1.285-18.215,3.274
			C145.644-22.727,146.643-21.722,147.26-22.399L147.26-22.399z"/>
	</g>
</g>
<g>
	<g>
		<path d="M159.624-13.741c-2.081,0.819-4.548,0.206-6.063-1.432c-2.255-2.436,2.195-4.41,4.092-4.61
			c4.058-0.428,5.516,6.221,1.16,6.352c-0.912,0.027-0.914,1.444,0,1.417c2.688-0.081,4.401-2.211,4.061-4.86
			c-0.357-2.781-2.751-4.586-5.509-4.295c-2.903,0.306-6.966,2.679-5.451,6.067c1.249,2.795,5.464,3.761,8.087,2.728
			C160.84-12.705,160.475-14.076,159.624-13.741L159.624-13.741z"/>
	</g>
</g>
<g>
	<g>
		<path d="M161.139-17.101c-1.624,0.003-3.262,0-4.854,0.365c-0.891,0.205-0.513,1.571,0.377,1.367
			c1.466-0.337,2.981-0.313,4.477-0.315C162.053-15.686,162.053-17.103,161.139-17.101L161.139-17.101z"/>
	</g>
</g>
<g>
	<g>
		<path d="M150.208-7.764c4.013,2.518,9.854,2.239,14.049,0.311c0.83-0.381,0.109-1.603-0.715-1.224
			c-3.74,1.719-9.058,1.923-12.619-0.311C150.146-9.475,149.435-8.249,150.208-7.764L150.208-7.764z"/>
	</g>
</g>
</svg>
